<?xml version="1.0" encoding="UTF-8" standalone="no"?><!-- Generator: Gravit.io --><svg xmlns="http://www.w3.org/2000/svg" xmlns:xlink="http://www.w3.org/1999/xlink" style="isolation:isolate" viewBox="0 0 295.2 324" width="295.2pt" height="324pt"><defs><clipPath id="_clipPath_pF12FRrmYr85o1Axv4tJV90YNKNGBpAf"><rect width="295.2" height="324"/></clipPath></defs><g clip-path="url(#_clipPath_pF12FRrmYr85o1Axv4tJV90YNKNGBpAf)"><mask id="_mask_Qh98TrQy67QVJcauMAiuDikwoXkb55f4"><path d=" M 268.04 253.451 L 216.775 283.049 L 165.511 312.647 C 155.046 318.688 138.054 318.688 127.589 312.647 L 76.325 283.049 L 25.061 253.451 C 14.596 247.41 6.1 232.694 6.1 220.61 L 6.1 161.415 L 6.1 102.22 C 6.1 90.137 14.596 75.421 25.061 69.379 L 76.325 39.782 L 127.589 10.184 C 138.054 4.142 155.046 4.142 165.511 10.184 L 216.775 39.782 L 268.04 69.379 C 278.505 75.421 287.001 90.137 287.001 102.22 L 287.001 161.415 L 287.001 220.61 C 287.001 232.694 278.505 247.41 268.04 253.451 Z " fill="white" stroke="none"/></mask><path d=" M 268.04 253.451 L 216.775 283.049 L 165.511 312.647 C 155.046 318.688 138.054 318.688 127.589 312.647 L 76.325 283.049 L 25.061 253.451 C 14.596 247.41 6.1 232.694 6.1 220.61 L 6.1 161.415 L 6.1 102.22 C 6.1 90.137 14.596 75.421 25.061 69.379 L 76.325 39.782 L 127.589 10.184 C 138.054 4.142 155.046 4.142 165.511 10.184 L 216.775 39.782 L 268.04 69.379 C 278.505 75.421 287.001 90.137 287.001 102.22 L 287.001 161.415 L 287.001 220.61 C 287.001 232.694 278.505 247.41 268.04 253.451 Z " fill="none"/><path d=" M 268.04 253.451 L 216.775 283.049 L 165.511 312.647 C 155.046 318.688 138.054 318.688 127.589 312.647 L 76.325 283.049 L 25.061 253.451 C 14.596 247.41 6.1 232.694 6.1 220.61 L 6.1 161.415 L 6.1 102.22 C 6.1 90.137 14.596 75.421 25.061 69.379 L 76.325 39.782 L 127.589 10.184 C 138.054 4.142 155.046 4.142 165.511 10.184 L 216.775 39.782 L 268.04 69.379 C 278.505 75.421 287.001 90.137 287.001 102.22 L 287.001 161.415 L 287.001 220.61 C 287.001 232.694 278.505 247.41 268.04 253.451 Z " fill="none" mask="url(#_mask_Qh98TrQy67QVJcauMAiuDikwoXkb55f4)" vector-effect="non-scaling-stroke" stroke-width="10" stroke="rgb(0,0,0)" stroke-linejoin="miter" stroke-linecap="square" stroke-miterlimit="3"/><g><path d=" M 157.405 86.437 C 156.926 86.604 156.218 86.916 155.822 87.166 C 154.947 87.708 154.843 87.708 153.655 87.166 C 152.447 86.625 151.489 86.729 149.343 87.604 L 147.822 88.25 L 145.489 87.5 C 142.426 86.541 139.134 86.187 137.03 86.604 L 135.572 86.895 L 135.634 88.27 C 135.676 89.583 135.655 89.646 135.113 89.875 C 134.78 90 133.218 90.25 131.613 90.416 C 125.301 91.104 122.738 91.958 118.509 94.771 C 116.676 96 113.134 99.541 110.384 102.916 C 109.655 103.833 108.217 105.562 107.238 106.771 C 106.238 107.979 105.03 109.479 104.551 110.125 C 102.301 113.125 100.78 114.896 99.53 116 C 97.988 117.375 97.967 117.625 99.405 118.521 C 100.176 119.021 100.197 119.062 100.051 119.875 C 99.884 120.854 97.884 123.979 97.342 124.125 C 97.113 124.187 96.447 124 95.842 123.708 C 93.301 122.542 90.009 121.979 87.863 122.375 C 81.571 123.521 77.821 130.5 79.092 138.708 C 79.967 144.167 83.259 152.042 87.196 157.959 C 89.571 161.584 89.613 161.834 87.946 164.125 C 87.384 164.896 86.926 165.625 86.926 165.729 C 86.926 165.854 87.321 166.375 87.801 166.896 C 88.801 168 88.946 168.5 88.446 169.25 C 88.092 169.813 84.551 173.625 79.821 178.521 C 76.321 182.167 72.988 186.167 72.738 187.021 C 72.384 188.271 73.759 189.438 75.301 189.188 L 76.113 189.063 L 75.78 189.688 C 75.467 190.271 75.488 190.396 75.884 191.271 C 76.426 192.542 76.405 192.959 75.696 195.542 C 75.363 196.73 74.738 199.021 74.321 200.625 C 72.967 205.876 71.759 209.396 70.55 211.813 C 69.863 213.188 69.905 213.73 70.842 214.688 C 71.53 215.417 71.738 215.521 72.738 215.605 C 74.446 215.73 74.426 215.688 73.676 222.396 C 73.488 224.105 73.405 225.792 73.488 226.688 C 73.613 228.001 73.53 228.563 72.801 231.48 C 71.426 236.917 71.03 240.272 71.321 243.688 C 71.571 246.647 72.051 247.334 74.53 248.167 C 75.384 248.459 76.405 248.522 80.301 248.542 C 84.426 248.542 85.071 248.584 85.384 248.897 C 85.696 249.209 85.696 249.48 85.259 252.918 C 84.821 256.293 84.801 256.876 85.009 259.772 C 85.28 263.501 85.926 266.897 86.613 268.334 C 87.217 269.584 88.301 270.334 90.196 270.813 C 91.363 271.126 96.676 271.147 145.614 271.105 L 199.739 271.043 L 200.718 270.584 C 202.926 269.563 203.739 268.105 204.197 264.376 C 204.801 259.438 204.656 254.855 203.801 252.188 C 203.572 251.438 203.26 250.522 203.156 250.126 C 202.989 249.605 202.989 249.397 203.156 249.272 C 203.301 249.188 206.281 249.063 209.822 249.001 C 213.343 248.938 216.468 248.772 216.781 248.667 C 217.302 248.459 217.343 248.355 217.343 247.355 C 217.343 246.751 217.197 245.501 217.031 244.584 C 216.468 241.667 216.052 241.147 215.51 242.73 C 214.864 244.584 214.156 246.147 213.864 246.397 C 213.572 246.626 213.552 246.542 213.677 245.73 C 213.739 245.209 213.864 243.313 213.927 241.522 C 214.031 238.855 213.989 237.959 213.697 236.626 C 213.239 234.501 212.322 232.813 210.947 231.563 C 210.343 231.001 209.843 230.501 209.843 230.438 C 209.843 230.355 210.177 230.459 210.593 230.626 C 211.489 231.001 211.51 231.001 211.51 230.73 C 211.51 230.272 210.135 229.022 208.739 228.23 L 207.239 227.376 L 208.864 227.48 C 209.739 227.522 210.468 227.501 210.468 227.397 C 210.468 227.022 207.239 224.271 206.031 223.626 C 205.031 223.084 204.843 222.917 205.176 222.855 C 205.718 222.771 207.531 223.521 210.114 224.834 C 212.156 225.896 213.177 226.897 214.364 229.042 C 215.864 231.709 217.697 237.001 219.114 242.709 C 219.447 244.042 219.593 246.73 219.406 248.022 C 219.322 248.501 219.385 248.542 220.01 248.48 C 221.052 248.376 222.031 247.897 222.531 247.272 C 223.947 245.459 221.572 235.751 218.072 229.126 L 217.156 227.397 L 217.697 227.397 C 217.989 227.397 218.489 227.167 218.843 226.876 C 219.322 226.48 219.697 226.355 220.489 226.355 C 221.989 226.355 222.343 226.105 222.343 225.063 C 222.343 224.167 221.489 219.646 220.968 217.876 C 220.802 217.271 220.572 216.146 220.489 215.376 C 220.406 214.605 220.26 213.792 220.156 213.584 C 220.031 213.271 220.135 213.23 221.218 213.23 C 222.302 213.23 222.385 213.251 222.01 213.521 C 221.802 213.688 221.677 213.876 221.76 213.959 C 222.01 214.23 222.656 213.855 222.906 213.313 C 223.197 212.688 222.968 211.896 221.781 209.292 C 220.739 207.001 219.51 203.751 218.447 200.417 C 217.947 198.813 217.26 196.646 216.927 195.625 C 216.197 193.313 215.343 190.271 215.177 189.209 C 215.031 188.438 215.052 188.438 215.718 188.438 C 216.531 188.438 218.385 187.25 218.385 186.73 C 218.385 186.23 217.197 184.042 215.76 181.875 C 212.218 176.542 211.26 175.209 208.864 172.146 C 205.947 168.417 205.531 167.667 205.989 167.063 C 206.468 166.417 206.364 165.938 205.426 164.584 C 204.385 163.125 204.239 162.021 204.947 161.125 C 210.031 154.583 211.427 152.083 213.802 145.208 C 215.114 141.375 215.677 138.854 215.822 136.146 C 216.156 129.354 213.593 124.687 208.489 122.771 C 207.468 122.375 206.801 122.292 204.947 122.292 C 202.864 122.292 202.426 122.375 200.072 123.104 L 197.489 123.917 L 196.989 123.354 C 196.385 122.646 196.364 122.042 196.989 121.854 C 197.676 121.646 198.176 121.146 198.176 120.646 C 198.176 120.042 197.176 118.042 195.843 116 C 195.239 115.062 193.947 113.021 192.968 111.458 C 190.947 108.229 188.885 105.458 186.26 102.437 C 182.843 98.521 179.572 95.937 175.364 93.854 C 171.655 92.021 168.03 91.104 163.218 90.812 C 160.093 90.604 159.718 90.021 161.53 88.354 C 162.468 87.479 162.572 87.333 162.301 87.062 C 161.926 86.666 159.968 86.145 159.009 86.166 C 158.614 86.166 157.884 86.291 157.405 86.437 Z  M 142.697 90.021 C 143.53 90.291 144.947 90.979 145.822 91.521 C 146.718 92.083 147.551 92.583 147.676 92.666 C 147.822 92.75 148.259 92.541 148.676 92.208 C 149.697 91.396 152.343 89.812 152.468 89.937 C 152.509 90 152.218 90.729 151.801 91.541 C 151.384 92.375 151.093 93.104 151.155 93.166 C 151.239 93.229 151.614 93 152.009 92.646 C 152.593 92.146 157.509 89.479 157.884 89.479 C 158.176 89.479 157.759 90.062 156.03 92.104 C 153.822 94.729 152.468 96.541 152.593 96.666 C 152.634 96.729 153.426 96.458 154.343 96.062 C 157.239 94.854 159.53 94.396 162.968 94.396 C 165.364 94.396 166.405 94.5 167.968 94.854 C 169.926 95.312 174.572 96.875 174.905 97.187 C 175.01 97.271 174.343 97.354 173.447 97.354 C 172.489 97.354 171.51 97.479 171.093 97.666 L 170.364 97.958 L 171.197 98.125 C 173.135 98.458 174.864 98.958 176.905 99.75 C 178.822 100.479 180.468 101.271 180.468 101.458 C 180.468 101.479 179.676 101.458 178.697 101.396 C 177.51 101.333 176.926 101.375 176.926 101.521 C 176.926 101.646 177.239 101.791 177.614 101.875 C 177.968 101.958 179.343 102.521 180.614 103.146 C 182.593 104.104 183.197 104.5 184.468 105.791 C 186.051 107.375 187.718 109.583 187.489 109.812 C 187.426 109.896 186.906 109.729 186.364 109.479 C 185.176 108.916 182.926 108.208 182.78 108.333 C 182.739 108.396 182.822 108.562 183.01 108.708 C 183.197 108.833 184.676 110 186.322 111.271 C 190.426 114.437 191.843 115.979 193.281 118.854 C 193.906 120.104 194.426 121.187 194.426 121.25 C 194.426 121.5 193.947 121.292 192.114 120.208 C 191.031 119.583 190.072 119.062 189.989 119.062 C 189.885 119.062 190.51 119.854 191.385 120.833 C 193.739 123.458 194.968 126.187 193.114 124.667 C 192.676 124.312 192.281 124.062 192.218 124.104 C 192.176 124.167 192.572 125.125 193.093 126.25 C 195.031 130.417 196.718 136.625 197.676 143.208 C 198.26 147.271 198.614 151.375 198.406 152.104 L 198.281 152.625 L 197.822 152.021 C 197.051 150.979 194.801 148.417 194.718 148.5 C 194.676 148.542 194.822 149.188 195.051 149.958 C 195.572 151.833 195.843 153.667 196.197 158.125 C 196.551 162.438 196.572 163.229 196.343 163.229 C 196.26 163.229 195.822 162.417 195.385 161.396 C 194.01 158.209 193.51 157.979 194.239 160.854 C 194.614 162.313 194.718 163.5 194.801 166.375 C 194.885 169.854 194.843 170.188 194.301 172.396 C 193.739 174.688 193.718 174.729 193.364 174.292 C 193.156 174.063 192.656 172.771 192.239 171.459 C 191.822 170.146 191.426 169.063 191.343 169.063 C 191.26 169.063 191.239 169.854 191.281 170.834 C 191.385 173.813 190.551 177.563 188.926 181.25 C 188.051 183.209 186.197 185.417 186.593 184 C 187.01 182.521 187.176 181.542 187.051 181.417 C 186.947 181.313 186.781 181.438 186.635 181.667 C 186.51 181.896 185.822 182.688 185.093 183.438 C 184.093 184.459 183.843 184.625 184.072 184.167 C 185.072 182.146 185.406 175.854 184.53 175.604 C 184.426 175.563 184.114 175.979 183.864 176.521 C 183.301 177.729 179.697 183.021 179.447 183.021 C 179.343 183.021 179.197 182.667 179.114 182.25 C 178.926 181.271 178.197 179.271 178.01 179.271 C 177.926 179.271 177.635 179.896 177.385 180.667 C 177.114 181.459 176.53 182.688 176.093 183.438 C 175.343 184.709 173.53 187 173.176 187.146 C 173.093 187.188 172.676 186.313 172.26 185.23 C 171.385 183 169.343 179.479 168.01 177.875 C 167.135 176.854 167.114 176.792 167.01 174.979 C 166.864 172.792 166.614 171.854 166.01 171.188 L 165.572 170.688 L 166.405 170.875 C 166.864 170.959 168.593 171.021 170.26 171.021 C 172.885 171 173.53 170.917 175.155 170.438 C 179.051 169.292 182.989 166.896 185.155 164.375 C 187.947 161.104 189.551 156.833 190.489 150.208 C 190.947 146.958 191.531 145.375 192.489 144.771 C 192.801 144.563 193.135 144.292 193.218 144.167 C 193.301 144.063 193.385 143.021 193.385 141.854 L 193.385 139.771 L 192.572 139.417 C 192.072 139.188 191.051 138.271 189.906 137.021 C 186.635 133.479 185.01 131.542 185.135 131.396 C 185.26 131.271 187.343 131.583 188.343 131.896 C 188.635 131.979 188.801 131.937 188.801 131.771 C 188.801 131.292 187.468 130.312 185.26 129.146 C 182.905 127.896 182.322 127.5 183.176 127.708 C 184.468 128 187.864 128.604 187.947 128.521 C 188.135 128.354 187.426 127.771 185.551 126.562 C 181.489 123.917 175.676 121.687 172.489 121.542 C 171.926 121.5 171.447 121.417 171.405 121.333 C 171.239 121.083 172.051 120.542 173.885 119.667 C 174.885 119.208 175.655 118.771 175.614 118.729 C 175.364 118.479 170.885 117.812 169.551 117.812 C 166.51 117.833 161.614 118.687 159.989 119.521 C 159.53 119.75 159.134 119.875 159.072 119.833 C 158.822 119.562 161.259 115.5 162.885 113.479 C 163.197 113.104 163.405 112.75 163.343 112.687 C 163.093 112.458 159.03 114.896 157.28 116.354 C 155.384 117.937 153.301 120.042 152.405 121.25 C 151.489 122.521 151.718 121.521 152.968 118.812 C 153.676 117.292 154.53 115.542 154.864 114.958 C 155.884 113.104 155.614 113.167 153.343 115.312 C 151.197 117.312 149.301 120.042 148.593 122.125 C 148.114 123.562 147.759 124.062 147.759 123.312 C 147.759 122.437 145.489 117.812 145.051 117.812 C 144.968 117.812 144.926 118.354 144.989 119 C 145.176 121.021 144.572 122.417 144.051 121.25 C 143.676 120.458 143.426 120.625 143.53 121.625 C 143.655 122.687 143.28 124.25 142.843 124.417 C 142.634 124.5 141.864 123.896 140.614 122.667 C 138.801 120.917 137.947 120.229 135.988 119.062 L 135.176 118.562 L 135.863 119.687 C 137.155 121.854 138.259 124.875 137.905 125.229 C 137.843 125.312 137.28 125.042 136.676 124.646 C 134.905 123.458 132.28 122.229 130.322 121.646 C 128.718 121.167 128.134 121.083 125.572 121.104 C 121.093 121.104 117.988 121.833 114.426 123.667 C 111.967 124.937 110.717 125.875 107.863 128.583 L 105.634 130.729 L 107.072 130.729 C 107.842 130.729 108.613 130.812 108.759 130.917 C 108.947 131.042 108.551 131.542 107.322 132.729 C 106.405 133.625 104.884 135.271 103.988 136.375 C 103.072 137.458 101.842 138.729 101.28 139.167 C 100.697 139.604 100.134 140.208 100.03 140.479 C 99.905 140.771 99.884 141.792 99.967 142.792 L 100.113 144.583 L 101.217 145.625 L 102.342 146.667 L 102.655 149.792 C 103.176 154.646 103.738 156.958 105.176 160.063 C 106.217 162.354 107.572 164.229 109.384 165.979 C 113.009 169.438 117.634 171.188 123.134 171.188 C 124.53 171.188 125.676 171.209 125.676 171.25 C 125.676 171.271 125.53 171.646 125.363 172.063 C 125.197 172.459 124.947 173.709 124.843 174.834 C 124.613 176.979 124.634 176.938 122.863 179.292 C 121.551 181.021 120.905 182.25 119.509 185.625 C 118.801 187.334 118.134 188.771 118.03 188.792 C 117.926 188.834 117.676 188.521 117.488 188.125 C 116.926 186.959 114.363 183.021 114.155 183.021 C 114.072 183.021 114.03 183.188 114.092 183.375 C 114.426 184.521 114.676 185.75 114.572 185.855 C 114.238 186.209 112.176 181.271 111.197 177.709 C 110.697 175.896 110.467 176.584 110.447 180.104 C 110.426 182.209 110.363 183.021 110.197 182.959 C 110.051 182.917 109.509 182.23 108.967 181.459 C 107.301 179.042 107.301 179.042 107.363 181.542 C 107.426 183.98 107.259 184.271 106.447 183.188 C 104.467 180.584 102.238 175.292 101.176 170.667 C 100.967 169.792 100.759 169.063 100.697 169.063 C 100.634 169.063 100.384 169.542 100.155 170.146 C 99.447 171.959 99.217 171.709 99.217 169.063 C 99.217 167.313 99.363 166.021 99.822 163.771 C 100.467 160.625 101.342 157.375 101.842 156.167 C 102.009 155.771 102.113 155.417 102.072 155.375 C 101.988 155.292 100.488 157.042 99.613 158.229 C 99.322 158.625 98.592 159.854 98.009 160.938 C 96.842 163.104 96.384 163.813 96.238 163.646 C 96.176 163.584 96.259 162.646 96.405 161.563 C 96.572 160.479 96.884 157.938 97.134 155.938 C 97.551 152.521 97.947 150.146 98.28 148.792 C 98.509 147.917 98.072 148.104 97.447 149.188 C 97.134 149.708 96.822 150.083 96.759 150 C 96.176 149.417 98.655 135.354 100.176 130.812 C 100.801 128.875 102.488 125.625 103.467 124.375 C 105.697 121.583 110.134 118.125 113.738 116.333 C 114.822 115.812 115.613 115.333 115.551 115.25 C 115.467 115.167 114.342 115.104 113.072 115.104 C 109.78 115.104 107.467 115.542 104.801 116.667 C 104.572 116.75 104.426 116.729 104.426 116.562 C 104.426 115.417 110.759 110.125 113.717 108.833 C 114.217 108.604 114.592 108.333 114.53 108.229 C 114.405 108.021 111.842 108.583 111.051 108.979 C 109.53 109.771 110.842 108.104 112.759 106.833 C 115.488 105.041 119.947 103.041 122.655 102.375 C 125.322 101.75 125.218 101.771 124.78 101.541 C 124.593 101.416 123.759 101.271 122.947 101.208 C 122.072 101.125 121.53 101 121.572 100.854 C 121.613 100.75 122.363 100.271 123.259 99.833 C 125.363 98.771 125.155 98.479 122.613 98.854 C 121.613 99 120.134 99.291 119.343 99.521 C 118.551 99.729 117.884 99.875 117.822 99.833 C 117.593 99.583 121.53 97.125 124.218 95.854 C 128.238 93.958 129.843 93.771 134.322 94.75 C 136.155 95.146 137.822 95.541 138.03 95.625 C 138.218 95.708 138.384 95.687 138.384 95.583 C 138.384 95.187 137.28 94.354 135.926 93.708 L 134.53 93.041 L 136.093 93.041 C 138.947 93.021 141.239 93.354 142.655 94.041 C 143.384 94.375 144.03 94.604 144.093 94.541 C 144.155 94.479 144.051 94.125 143.864 93.771 C 143.176 92.396 142.134 91.208 140.905 90.437 C 140.197 89.979 139.634 89.521 139.634 89.416 C 139.634 89.166 140.864 89.396 142.697 90.021 Z  M 206.531 126.021 C 207.989 126.354 209.364 127.146 210.239 128.125 C 211.802 129.917 212.656 132.771 212.489 135.729 C 212.239 140.313 209.385 148.313 206.01 153.917 C 205.218 155.25 202.593 158.438 202.322 158.438 C 202.218 158.438 202.093 158.188 202.031 157.854 C 201.968 157.542 201.635 156.417 201.322 155.354 L 200.697 153.417 L 201.218 153.208 C 201.51 153.104 201.822 153.021 201.926 153.021 C 202.406 153.021 204.218 150.854 204.906 149.458 C 205.968 147.292 206.364 145.604 206.26 143.563 C 206.176 141.563 205.468 139.854 203.926 138.063 C 203.406 137.438 202.968 136.813 202.968 136.667 C 202.968 136.333 204.426 135.729 205.26 135.729 C 205.593 135.729 206.26 135.875 206.718 136.063 C 207.176 136.25 207.76 136.354 208.031 136.271 C 208.302 136.208 209.093 135.563 209.802 134.812 C 210.927 133.646 211.093 133.375 211.093 132.667 C 211.093 131.437 210.072 129.812 209.01 129.396 C 206.926 128.562 204.947 129.271 202.593 131.729 C 201.76 132.604 200.635 133.979 200.093 134.771 C 199.551 135.563 199.01 136.25 198.885 136.292 C 198.739 136.333 198.51 135.75 198.281 134.75 C 198.093 133.854 197.801 132.667 197.635 132.104 C 197.135 130.375 197.218 130.042 198.51 128.667 C 200.676 126.312 203.656 125.333 206.531 126.021 Z  M 91.967 126.167 C 94.009 126.604 95.697 127.792 97.238 129.896 L 97.947 130.854 L 97.53 132.208 C 97.197 133.271 96.301 137.146 96.301 137.521 C 96.301 137.563 96.238 137.604 96.155 137.604 C 96.051 137.604 95.676 137.021 95.322 136.292 C 93.655 133.083 90.738 130.25 88.426 129.562 C 87.176 129.187 86.301 129.312 85.321 129.958 C 84.53 130.5 83.592 132.104 83.592 132.917 C 83.592 133.729 84.384 135.021 85.259 135.625 C 85.905 136.063 86.113 136.104 86.696 135.938 C 87.426 135.729 87.905 135.875 88.384 136.438 C 88.717 136.854 89.363 136.854 90.321 136.458 C 90.738 136.292 91.176 136.146 91.301 136.146 C 91.738 136.146 91.488 136.875 90.676 137.917 C 88.696 140.479 88.196 143.208 89.092 146.625 C 89.842 149.563 90.842 151.5 92.217 152.771 L 93.363 153.792 L 92.738 155.833 C 92.405 156.958 92.134 157.917 92.134 157.959 C 92.134 157.979 92.009 158.021 91.842 158.021 C 91.696 158.021 91.155 157.479 90.634 156.813 C 86.717 151.813 82.551 141.354 82.196 135.625 C 81.946 131.812 83.342 128.479 85.821 126.958 C 87.321 126.021 89.78 125.708 91.967 126.167 Z  M 128.947 129.458 C 132.009 130.062 133.843 130.75 139.218 133.354 C 144.28 135.813 145.634 136.271 147.384 136.104 C 148.426 136 152.072 134.333 154.468 132.896 C 156.905 131.417 161.155 129.875 164.26 129.354 C 167.864 128.75 171.468 129.187 175.676 130.729 C 177.239 131.292 179.614 132.708 179.385 132.937 C 179.343 132.979 177.864 132.646 176.135 132.187 C 171.093 130.875 171.239 131.104 176.822 133.229 C 181.072 134.854 183.343 135.917 183.947 136.625 C 184.322 137.042 184.322 137.042 183.905 136.875 C 180.155 135.417 174.76 134.479 169.843 134.479 C 163.593 134.479 160.176 135.563 155.801 139 C 154.676 139.896 153.384 140.896 152.926 141.229 L 152.114 141.854 L 148.384 141.938 C 146.343 142 143.655 141.958 142.426 141.875 L 140.218 141.729 L 138.759 140.333 C 134.863 136.646 130.905 134.958 125.197 134.562 C 121.488 134.292 113.134 135.375 110.592 136.438 C 109.655 136.833 109.572 136.833 109.738 136.563 C 110.009 136.125 113.009 134.542 115.947 133.292 C 121.197 131.062 121.593 130.708 117.447 131.979 C 115.967 132.437 114.717 132.771 114.676 132.708 C 114.384 132.417 116.113 131.187 117.968 130.417 C 121.093 129.104 125.238 128.729 128.947 129.458 Z  M 152.551 133.062 C 152.551 133.167 152.426 133.229 152.28 133.229 C 152.155 133.229 151.051 133.687 149.843 134.271 C 147.468 135.417 146.509 135.542 144.822 135.042 C 143.572 134.646 140.468 133.208 140.468 133.021 C 140.468 132.917 143.176 132.875 146.509 132.875 C 149.822 132.896 152.551 132.979 152.551 133.062 Z  M 175.468 139.292 C 181.864 140.208 183.697 141.125 185.322 144.229 C 186.385 146.271 186.614 147.667 186.322 150.646 C 185.531 158.646 180.635 164.834 173.905 166.292 C 171.614 166.792 167.239 166.792 165.676 166.313 C 162.635 165.354 159.968 163.063 158.197 159.834 C 156.447 156.646 155.426 153.833 155.384 152.083 C 155.364 150.667 155.384 150.625 155.884 150.563 C 156.989 150.438 157.364 150.292 157.822 149.75 C 159.843 147.313 160.614 146.854 163.51 146.25 C 165.343 145.854 171.114 145.583 172.614 145.813 C 173.635 145.979 175.01 146.896 174.697 147.208 C 174.593 147.313 173.718 147.292 172.76 147.188 C 171.78 147.083 169.155 146.979 166.926 146.938 C 161.093 146.896 160.509 147.104 158.926 149.833 C 158.489 150.563 157.822 151.375 157.343 151.708 C 156.884 152.021 156.509 152.417 156.509 152.542 C 156.509 152.688 156.864 152.979 157.301 153.208 C 157.739 153.417 158.655 154.042 159.364 154.563 C 161.218 155.958 163.01 156.583 165.614 156.708 C 168.426 156.875 169.364 156.604 170.655 155.292 C 172.051 153.875 173.155 151.896 174.072 149.229 C 174.135 149.021 174.447 148.813 174.739 148.729 C 176.051 148.396 176.51 150.188 175.78 152.813 C 175.343 154.438 175.405 154.729 175.989 153.646 C 176.676 152.375 177.343 150.229 177.343 149.292 C 177.343 148.292 176.53 146.583 175.614 145.708 C 174.03 144.188 170.343 142.396 167.614 141.833 C 166.239 141.542 165.697 141.542 164.051 141.729 C 161.447 142.063 158.489 143.188 157.197 144.354 C 156.551 144.917 156.572 144.417 157.239 143.563 C 157.926 142.646 159.884 141.125 161.197 140.479 C 164.822 138.667 168.801 138.333 175.468 139.292 Z  M 129.113 139.417 C 129.926 139.646 131.197 140.146 131.926 140.542 C 133.28 141.25 135.676 143.292 135.447 143.521 C 135.384 143.604 134.905 143.417 134.405 143.146 C 132.655 142.167 131.218 141.875 128.176 141.875 C 125.843 141.875 125.113 141.958 123.905 142.333 C 119.926 143.583 116.717 146.875 116.717 149.688 C 116.717 151.417 119.03 156.813 120.905 159.479 C 121.655 160.542 123.093 161.917 123.28 161.729 C 123.322 161.688 122.697 160.917 121.884 160 C 119.488 157.292 118.426 154.667 118.238 150.979 L 118.113 148.854 L 118.718 148.854 C 119.551 148.854 119.634 148.958 120.509 150.729 C 121.447 152.604 122.738 154.625 123.53 155.396 C 124.593 156.479 125.197 156.667 127.343 156.667 C 128.988 156.646 129.551 156.563 130.676 156.083 C 131.905 155.583 136.343 153.25 136.634 152.958 C 136.718 152.896 136.218 152.104 135.551 151.188 C 134.863 150.292 134.03 149.125 133.676 148.625 C 133.218 147.938 132.822 147.625 132.218 147.458 C 130.738 147 128.322 146.938 124.238 147.188 C 122.03 147.313 120.176 147.375 120.113 147.313 C 119.884 147.083 120.509 146.563 121.28 146.354 C 122.718 145.938 125.697 145.896 128.384 146.208 C 132.488 146.729 132.947 146.917 135.03 149.042 C 136.009 150.042 137.134 150.979 137.509 151.146 C 138.176 151.396 138.197 151.438 138.072 152.375 C 137.884 153.667 136.988 156.396 136.28 157.834 C 135.488 159.438 133.426 162.125 132.009 163.417 C 130.509 164.792 127.926 166.042 125.676 166.479 C 123.551 166.896 119.738 166.771 117.968 166.25 C 112.801 164.688 109.155 160.521 107.426 154.146 C 106.926 152.375 106.842 151.688 106.842 149.271 C 106.842 146.167 107.176 144.917 108.426 143.083 C 109.884 140.917 112.822 139.771 118.593 139.063 C 121.238 138.75 127.426 138.958 129.113 139.417 Z  M 122.968 150.125 C 123.676 151.521 125.03 153.104 125.905 153.563 C 126.801 154.021 128.53 153.917 129.738 153.354 C 130.968 152.792 131.572 152.167 132.03 151.063 C 132.218 150.625 132.405 150.313 132.447 150.354 C 132.738 150.646 133.947 153.333 133.884 153.542 C 133.718 153.958 131.488 155.313 130.384 155.625 C 127.697 156.438 124.926 156.188 123.759 155.042 C 122.968 154.25 122.197 152.646 121.884 151.104 C 121.655 149.958 121.78 148.854 122.134 148.854 C 122.238 148.854 122.634 149.417 122.968 150.125 Z  M 172.385 149.792 C 172.739 151.104 170.885 154.75 169.426 155.604 C 168.343 156.229 166.947 156.375 164.739 156.042 C 162.635 155.729 161.614 155.375 160.718 154.688 C 160.114 154.208 159.426 153.25 159.426 152.896 C 159.426 152.646 161.03 150.438 161.259 150.354 C 161.364 150.333 161.593 150.667 161.78 151.125 C 162.28 152.208 163.301 153.083 164.739 153.625 C 166.176 154.167 166.926 154.167 167.947 153.646 C 169.01 153.104 169.76 152.188 170.614 150.375 C 171.239 149.021 171.343 148.896 171.76 149.042 C 172.01 149.125 172.28 149.458 172.385 149.792 Z  M 147.447 150 C 148.134 150.188 149.051 150.563 149.468 150.833 C 150.134 151.271 150.301 151.583 150.864 153.313 C 151.218 154.396 151.509 155.396 151.509 155.521 C 151.509 155.646 151.239 155.604 150.843 155.396 C 148.947 154.417 145.072 154.167 143.03 154.875 C 142.426 155.083 141.926 155.188 141.926 155.125 C 141.926 154.75 143.239 151.146 143.572 150.583 C 144.155 149.646 145.384 149.479 147.447 150 Z  M 148.489 155.208 C 150.614 155.771 151.447 156.417 152.801 158.646 C 153.468 159.729 154.009 160.688 154.009 160.75 C 154.009 160.834 153.572 160.667 153.03 160.396 C 151.572 159.646 149.614 159.688 147.989 160.5 C 147.322 160.854 146.489 161.354 146.155 161.646 C 145.489 162.209 145.051 162.334 145.051 161.979 C 145.051 161.667 143.197 160.542 142.259 160.292 C 141.634 160.125 141.239 160.146 140.489 160.396 C 139.968 160.563 139.509 160.667 139.468 160.625 C 139.363 160.521 141.468 156.333 141.801 156 C 141.926 155.875 142.593 155.563 143.28 155.333 C 144.801 154.813 146.78 154.771 148.489 155.208 Z  M 153.718 162.104 C 155.009 162.959 158.676 166.375 159.051 167.042 C 159.218 167.396 159.634 169.417 159.989 171.709 C 160.114 172.521 159.364 173.938 158.364 174.771 C 157.426 175.563 157.801 175.709 158.864 174.979 C 159.405 174.604 159.926 173.979 160.239 173.354 C 160.718 172.396 160.739 172.271 160.489 171.167 C 160.343 170.521 160.176 169.5 160.114 168.875 L 159.989 167.771 L 160.489 168.021 C 161.593 168.604 163.78 170.542 164.385 171.5 C 164.76 172.063 165.26 173.375 165.572 174.584 C 166.218 176.979 166.26 177.104 167.614 178.875 C 168.885 180.542 170.322 183.48 170.864 185.521 C 171.405 187.563 171.801 191.313 171.635 192.959 C 171.364 195.625 169.551 199.688 167.343 202.625 C 165.718 204.771 162.155 208.251 160.364 209.459 C 159.447 210.063 156.593 211.605 154.03 212.855 C 149.926 214.855 149.218 215.292 148.155 216.334 C 147.509 216.98 146.676 218.105 146.322 218.813 C 145.968 219.521 145.572 220.105 145.468 220.105 C 145.364 220.105 145.009 219.626 144.718 219.021 C 144.405 218.417 143.593 217.334 142.884 216.605 C 141.593 215.251 140.822 214.751 134.843 211.355 C 131.238 209.313 129.905 208.313 127.509 205.896 C 124.259 202.646 122.155 199.313 120.843 195.417 C 120.447 194.167 120.363 193.542 120.363 191.042 C 120.363 187.771 120.655 185.938 121.509 183.75 C 122.322 181.709 123.009 180.605 124.218 179.292 C 124.78 178.667 125.259 178.084 125.259 178 C 125.259 177.896 125.988 177.438 126.863 176.938 C 127.738 176.459 128.343 176.021 128.197 175.979 C 127.843 175.854 126.197 176.5 125.884 176.896 C 125.509 177.334 124.968 177.271 125.155 176.813 C 125.238 176.625 125.488 175.604 125.697 174.584 C 126.176 172.292 126.551 171.521 127.551 170.854 C 128.718 170.084 131.738 168.604 131.884 168.729 C 131.947 168.813 131.884 169.334 131.759 169.917 C 131.343 171.709 131.426 173.104 132.009 173.813 C 132.447 174.313 134.738 175.729 135.134 175.729 C 135.509 175.729 135.134 175.292 134.155 174.625 C 132.905 173.75 132.134 172.584 132.134 171.5 C 132.134 169.979 132.738 167.563 133.322 166.792 C 134.384 165.375 137.447 162.459 138.384 161.979 C 139.072 161.625 139.697 161.479 140.676 161.479 C 142.218 161.459 143.343 161.979 144.614 163.313 C 145.009 163.729 145.468 164.063 145.593 164.063 C 145.739 164.063 146.426 163.604 147.093 163.042 C 149.072 161.396 149.739 161.104 151.218 161.209 C 152.28 161.292 152.718 161.438 153.718 162.104 Z  M 200.114 169.5 C 201.239 170.104 205.51 174.146 207.322 176.354 C 210.739 180.5 212.885 183.375 212.718 183.542 C 212.677 183.584 211.51 183.167 210.156 182.605 C 208.781 182.042 207.51 181.584 207.343 181.563 C 207.176 181.563 207.572 182.105 208.197 182.75 C 208.843 183.417 209.781 184.48 210.302 185.105 C 211.322 186.334 212.614 188.709 212.51 189.167 C 212.468 189.334 211.947 188.855 211.343 188.105 C 210.468 187.021 209.947 186.605 208.885 186.105 C 208.135 185.75 207.468 185.521 207.406 185.605 C 207.343 185.667 207.614 186.084 208.031 186.542 C 208.447 187 209.031 187.792 209.343 188.271 C 210.427 189.98 212.927 195.105 213.281 196.292 C 213.927 198.521 216.552 205.813 217.302 207.459 C 217.697 208.334 217.989 209.126 217.927 209.167 C 217.885 209.23 216.864 208.938 215.677 208.542 C 214.489 208.146 213.489 207.855 213.447 207.896 C 213.26 208.084 213.843 209.105 214.572 209.834 C 215.01 210.292 215.614 211.084 215.927 211.584 C 216.239 212.084 216.822 212.959 217.239 213.521 C 218.447 215.167 218.093 215.355 216.656 213.792 C 215.531 212.584 214.843 212.105 214.843 212.501 C 214.843 212.563 215.156 213.251 215.552 214.021 C 217.385 217.688 219.468 224.896 218.677 224.896 C 218.468 224.896 216.489 223.209 214.447 221.271 C 212.114 219.105 209.072 216.855 205.468 214.688 C 203.864 213.73 202.551 212.876 202.551 212.792 C 202.551 212.626 205.926 213.313 206.801 213.646 C 207.135 213.771 207.447 213.813 207.51 213.751 C 207.593 213.688 206.968 212.98 206.156 212.188 C 205.343 211.396 204.239 210.146 203.718 209.417 C 202.843 208.188 202.385 207.292 200.072 202.292 C 199.093 200.23 198.176 198.563 198.051 198.688 C 198.01 198.73 197.885 200.125 197.76 201.792 C 197.635 203.438 197.364 206.063 197.156 207.605 L 196.781 210.417 L 196.281 209.334 C 196.01 208.73 195.718 208.23 195.656 208.23 C 195.489 208.23 195.26 209.876 195.26 210.98 C 195.26 211.459 195.156 211.834 194.989 211.896 C 194.843 211.938 193.781 211.626 192.635 211.146 C 190.385 210.251 189.76 210.167 187.906 210.459 C 186.926 210.626 186.531 210.584 185.635 210.271 C 185.03 210.063 184.322 209.896 184.051 209.896 C 183.76 209.896 182.447 210.501 181.114 211.23 C 178.489 212.667 177.135 213.251 172.655 214.917 C 171.051 215.501 169.322 216.209 168.801 216.459 C 167.135 217.313 165.76 219.126 163.78 223.063 C 163.301 224.021 162.384 225.73 161.718 226.876 C 161.051 228.022 159.926 230.292 159.218 231.938 C 158.489 233.584 157.78 235.063 157.614 235.23 C 157.364 235.48 155.551 235.522 146.551 235.563 C 129.613 235.647 130.363 235.647 130.009 235.355 C 129.822 235.209 129.238 233.959 128.697 232.584 C 128.155 231.209 126.488 227.626 124.988 224.626 C 123.488 221.626 122.259 219.084 122.259 219.001 C 122.218 218.521 119.613 216.751 117.613 215.834 C 115.051 214.688 111.842 212.896 109.155 211.126 C 106.967 209.688 106.259 209.521 104.426 210.084 C 103.676 210.292 102.467 210.542 101.717 210.605 C 100.967 210.688 100.072 210.792 99.717 210.855 C 99.051 210.98 99.051 210.959 98.905 209.917 C 98.738 208.73 98.509 208.438 98.197 209.042 C 98.072 209.271 97.801 209.605 97.613 209.813 C 97.259 210.146 97.238 210.063 96.905 208.105 C 95.655 200.834 95.238 198.563 95.155 198.48 C 95.113 198.438 95.009 198.667 94.947 198.98 C 94.342 201.73 92.592 206.417 91.592 207.917 C 90.717 209.23 89.155 210.459 86.863 211.584 C 85.863 212.084 85.051 212.563 85.051 212.646 C 85.051 212.751 86.28 212.813 87.801 212.813 C 89.446 212.813 90.467 212.896 90.363 213.001 C 90.238 213.105 89.092 213.626 87.821 214.167 C 83.821 215.834 79.592 219.001 77.53 221.876 C 77.155 222.396 76.821 222.771 76.78 222.73 C 76.634 222.584 77.363 217.521 77.884 215.105 C 78.155 213.792 78.759 211.584 79.217 210.23 C 80.03 207.792 80.176 207.188 79.926 207.188 C 79.676 207.188 77.967 208.48 76.613 209.709 C 75.821 210.417 75.134 210.896 75.092 210.771 C 74.988 210.438 76.926 206.438 78.009 204.771 C 78.509 203.98 79.321 202.605 79.821 201.73 C 80.301 200.834 80.78 200.063 80.905 200 C 81.196 199.813 81.134 199.48 80.801 199.48 C 80.446 199.48 78.03 202.021 77.717 202.73 C 77.592 203 77.426 203.23 77.342 203.23 C 77.134 203.23 79.092 195.855 79.926 193.542 C 80.905 190.792 80.905 190.459 79.842 190.042 C 79.384 189.875 79.009 189.625 79.009 189.521 C 79.009 189.021 82.821 184.167 83.738 183.459 C 84.426 182.959 84.217 182.917 82.384 183.313 C 81.613 183.48 80.571 183.667 80.051 183.73 L 79.113 183.855 L 80.78 182.355 C 81.696 181.521 84.196 179.104 86.342 176.959 C 90.071 173.25 92.134 171.417 93.884 170.229 C 94.967 169.5 95.092 169.542 94.738 170.5 C 94.301 171.771 93.946 176.875 94.072 180.167 C 94.197 183.292 94.613 186.605 94.884 186.521 C 94.967 186.48 95.342 185.855 95.717 185.105 C 96.092 184.375 96.509 183.73 96.634 183.709 C 96.759 183.667 97.072 184.417 97.342 185.459 C 98.072 188.313 99.217 191.771 99.426 191.771 C 99.53 191.771 99.822 191.042 100.092 190.167 C 100.363 189.292 100.676 188.542 100.78 188.5 C 100.905 188.459 101.259 189.25 101.592 190.25 C 102.467 192.98 103.301 194.813 104.572 196.709 C 105.801 198.584 106.259 198.875 106.134 197.73 C 105.988 196.563 106.197 196.438 106.717 197.313 C 108.259 199.834 110.113 201.584 114.947 205.001 C 117.53 206.834 120.176 209.105 124.009 212.792 C 125.447 214.167 126.655 215.251 126.697 215.209 C 126.738 215.146 126.384 214.355 125.926 213.396 C 125.447 212.459 125.113 211.646 125.176 211.584 C 125.238 211.521 125.488 211.605 125.738 211.771 C 125.988 211.917 126.947 212.48 127.863 212.98 C 132.551 215.584 137.53 220.001 138.759 222.646 C 138.947 223.084 139.197 223.438 139.301 223.438 C 139.551 223.438 139.322 220.459 139.009 219.896 C 138.384 218.73 139.134 219.126 140.822 220.855 C 142.239 222.334 143.072 223.438 144.489 225.792 C 145.489 227.48 146.301 229.001 146.301 229.167 C 146.301 229.751 146.655 229.313 147.28 227.959 C 148.489 225.438 150.197 222.938 152.176 220.917 C 153.239 219.813 154.426 218.709 154.822 218.438 C 155.468 217.98 155.53 217.98 155.405 218.355 C 154.426 221.355 153.801 224.896 154.239 224.896 C 154.343 224.896 154.78 224.167 155.176 223.271 C 157.03 219.188 157.822 217.917 160.155 215.251 C 162.28 212.834 162.926 212.584 162.176 214.521 C 161.53 216.105 161.405 216.771 161.739 216.771 C 161.884 216.771 163.135 215.667 164.51 214.292 C 167.322 211.542 169.593 209.792 173.905 207.084 C 179.301 203.709 180.926 202.521 182.739 200.73 C 184.947 198.521 186.614 196.271 188.156 193.438 C 188.822 192.167 189.468 191.25 189.635 191.25 C 189.801 191.25 190.156 191.667 190.426 192.188 C 190.676 192.709 190.968 193.146 191.072 193.188 C 191.26 193.25 192.156 190.625 192.426 189.209 C 192.489 188.896 192.593 188.417 192.656 188.125 C 192.718 187.855 193.343 186.98 194.031 186.209 C 195.301 184.792 196.031 183.584 196.489 182.125 C 196.635 181.709 196.822 181.355 196.926 181.355 C 197.218 181.355 197.551 182.605 197.551 183.667 C 197.551 184.23 197.635 184.688 197.739 184.688 C 197.947 184.688 198.572 182.167 199.114 179.167 C 199.551 176.771 199.781 170.813 199.468 169.917 C 199.218 169.209 199.364 169.104 200.114 169.5 Z  M 186.385 213.334 C 186.51 213.855 186.551 213.876 188.26 213.813 C 189.801 213.751 190.114 213.813 191.26 214.355 C 191.968 214.688 192.551 215.042 192.551 215.146 C 192.551 215.23 192.322 215.459 192.031 215.646 C 191.364 216.084 191.364 216.313 192.093 216.48 C 192.406 216.542 193.364 216.98 194.218 217.438 C 195.072 217.896 196.426 218.48 197.239 218.751 C 198.656 219.23 198.697 219.271 198.864 220.084 C 198.989 220.751 199.156 220.938 199.676 221.126 C 200.031 221.251 200.593 221.355 200.926 221.355 C 201.676 221.355 201.864 221.813 201.426 222.501 C 201.114 222.98 200.947 223.021 199.635 223.021 C 197.968 223.021 197.572 223.313 198.843 223.646 C 200.551 224.084 204.531 225.355 205.114 225.646 C 206.343 226.292 205.426 227.001 203.614 226.813 C 202.197 226.688 202.322 226.917 204.156 227.813 C 204.926 228.209 205.989 228.917 206.531 229.417 C 207.468 230.292 208.385 231.855 208.093 232.126 C 208.031 232.209 207.635 232.105 207.239 231.917 C 206.822 231.73 206.281 231.563 206.031 231.563 C 205.51 231.584 205.531 231.605 207.76 233.334 C 208.968 234.272 209.677 235.313 209.114 235.313 C 208.927 235.313 208.593 235.209 208.343 235.084 C 207.676 234.73 207.676 235.001 208.343 235.98 C 209.906 238.272 210.197 239.626 209.447 241.292 C 208.968 242.334 207.635 243.667 206.551 244.188 C 205.468 244.709 203.322 244.834 202.676 244.417 C 202.176 244.084 201.447 242.751 201.197 241.751 C 201.072 241.209 201.072 241.188 202.385 241.105 C 203.447 241.042 203.885 240.897 204.697 240.334 C 205.656 239.667 206.301 238.792 206.031 238.501 C 205.947 238.438 205.343 238.667 204.697 239.001 C 203.364 239.709 201.947 240.209 201.801 240.042 C 201.739 239.98 201.801 239.73 201.926 239.48 C 202.051 239.23 202.135 238.98 202.072 238.938 C 202.031 238.876 201.218 239.105 200.281 239.397 C 199.364 239.709 198.531 239.917 198.468 239.834 C 198.406 239.772 198.447 239.542 198.572 239.313 C 198.697 239.063 198.801 238.73 198.801 238.542 C 198.801 237.855 198.156 238.022 196.781 239.084 C 194.489 240.855 193.447 241.251 190.989 241.292 C 189.843 241.313 188.843 241.334 188.76 241.334 C 188.676 241.355 188.468 241.626 188.281 241.98 C 187.718 243.063 183.343 244.876 181.864 244.626 C 181.447 244.563 181.03 244.647 180.78 244.813 C 180.572 244.98 179.947 245.105 179.385 245.105 C 178.239 245.105 178.114 244.834 178.78 243.709 C 179.135 243.147 179.155 243.042 178.864 242.938 C 178.614 242.834 178.593 242.751 178.801 242.501 C 178.947 242.334 179.176 242.188 179.322 242.188 C 179.468 242.188 179.718 241.98 179.905 241.709 C 180.072 241.459 180.718 240.98 181.322 240.647 C 181.947 240.313 183.905 239.084 185.676 237.917 C 187.447 236.751 189.656 235.376 190.572 234.897 C 191.489 234.397 192.531 233.813 192.864 233.584 C 193.656 233.022 195.739 230.938 195.489 230.938 C 195.406 230.938 194.781 231.167 194.135 231.459 C 193.489 231.751 192.906 231.98 192.822 231.98 C 192.76 231.98 192.76 231.647 192.822 231.251 C 192.885 230.855 192.843 230.48 192.739 230.397 C 192.614 230.334 191.76 230.792 190.822 231.417 C 189.885 232.042 188.51 232.876 187.76 233.292 C 186.051 234.23 181.926 235.897 180.885 236.063 C 179.843 236.23 178.718 235.626 177.468 234.251 C 176.53 233.209 176.051 232.98 176.468 233.792 C 176.718 234.251 178.53 235.98 179.093 236.292 C 179.551 236.542 179.426 237.126 178.905 237.334 C 178.468 237.48 177.426 236.48 176.489 235.001 C 175.822 233.938 175.26 233.459 175.551 234.188 C 175.78 234.772 177.093 236.667 177.655 237.188 C 177.947 237.459 178.176 237.834 178.176 238.042 C 178.176 238.417 174.864 242.584 173.489 243.938 C 172.53 244.855 170.447 245.938 169.572 245.938 C 169.26 245.938 168.655 245.792 168.239 245.626 C 167.551 245.334 167.51 245.272 167.614 244.563 C 167.76 243.73 169.718 240.251 171.489 237.709 C 173.135 235.313 175.551 232.147 176.01 231.751 C 176.489 231.355 178.989 230.042 181.718 228.772 C 186.906 226.355 189.364 225.126 189.718 224.709 C 190.281 224.084 190.01 223.959 189.197 224.459 C 188.364 224.98 188.135 224.855 188.426 224.063 C 188.781 223.001 188.531 222.98 187.301 223.917 C 185.76 225.126 183.572 226.251 179.739 227.813 C 178.03 228.501 176.197 229.355 175.676 229.688 C 175.135 230.042 174.614 230.313 174.489 230.313 C 174.385 230.313 173.697 229.792 172.989 229.147 C 172.28 228.501 171.635 228.022 171.572 228.084 C 171.447 228.209 172.322 229.105 173.572 230.147 L 174.26 230.73 L 173.426 231.667 C 172.968 232.188 171.405 234.417 169.926 236.626 C 168.468 238.813 167.072 240.834 166.843 241.084 C 166.28 241.73 165.885 241.688 165.885 240.98 C 165.885 240.459 165.447 239.605 164.551 238.355 C 164.176 237.834 164.176 237.813 164.739 236.834 C 165.051 236.272 166.343 234.334 167.614 232.501 C 172.26 225.771 172.739 225.334 178.26 222.751 C 182.239 220.896 185.468 219.126 185.468 218.813 C 185.468 218.584 185.322 218.605 184.822 218.855 C 184.322 219.126 184.301 218.834 184.76 218.126 C 185.26 217.376 184.864 217.48 183.03 218.563 C 180.53 220.042 178.051 221.251 175.989 221.959 C 174.968 222.334 173.385 222.959 172.489 223.376 L 170.864 224.146 L 169.947 223.105 C 168.864 221.896 168.676 222.167 169.739 223.438 C 170.572 224.438 170.635 224.792 170.03 225.105 C 169.697 225.292 169.405 225.251 168.593 224.813 C 167.447 224.209 167.385 224.521 168.489 225.292 C 168.885 225.563 169.218 225.896 169.218 226.021 C 169.218 226.146 168.801 226.959 168.301 227.813 C 166.843 230.355 164.968 233.542 164.926 233.605 C 164.822 233.772 162.322 232.355 162.197 232.063 C 162.072 231.73 163.843 228.147 164.905 226.563 C 165.28 226.021 166.093 224.792 166.76 223.813 C 167.405 222.834 168.093 221.98 168.28 221.896 C 168.53 221.813 168.593 221.626 168.51 221.271 C 168.364 220.667 168.78 220.251 169.218 220.521 C 169.739 220.855 169.843 220.751 169.718 220.126 C 169.572 219.396 169.864 219.209 172.51 218.355 C 175.593 217.355 180.551 215.251 184.301 213.334 C 185.635 212.646 186.218 212.646 186.385 213.334 Z  M 105.78 213.938 C 106.884 214.001 107.426 214.209 110.676 215.855 C 112.676 216.896 115.259 218.146 116.405 218.646 C 118.551 219.605 119.384 220.251 119.968 221.417 C 120.155 221.771 120.801 222.834 121.405 223.751 C 122.593 225.563 125.884 231.584 125.884 231.938 C 125.884 232.272 124.218 233.855 123.634 234.084 C 123.363 234.188 123.218 234.355 123.28 234.48 C 123.509 234.855 124.113 234.709 125.009 234.042 C 125.738 233.522 125.947 233.438 126.197 233.647 C 126.78 234.126 126.53 234.772 125.238 236.084 C 124.53 236.813 123.905 237.397 123.822 237.397 C 123.738 237.397 123.468 237.042 123.218 236.605 C 122.947 236.188 121.988 234.605 121.051 233.126 C 120.134 231.626 118.905 229.584 118.322 228.563 C 117.384 226.897 117.322 226.688 117.655 226.522 C 118.134 226.23 120.759 223.855 120.863 223.584 C 121.009 223.209 119.218 224.501 117.801 225.813 L 117.113 226.459 L 116.447 225.688 C 115.592 224.709 114.217 223.917 110.509 222.271 C 107.509 220.938 106.03 220.063 104.113 218.459 C 103.009 217.542 102.738 217.605 103.259 218.626 C 103.759 219.563 103.676 219.792 103.051 219.376 C 102.405 218.959 102.217 219.063 102.592 219.688 C 102.926 220.251 104.238 221.021 108.488 223.23 C 112.967 225.542 113.947 226.251 115.426 228.313 C 118.926 233.147 123.801 240.73 123.801 241.313 C 123.801 241.417 123.447 241.876 123.009 242.313 C 122.343 242.98 122.176 243.334 122.051 244.209 C 121.968 244.813 121.822 245.313 121.697 245.313 C 121.197 245.313 119.863 244.438 119.093 243.605 C 117.488 241.855 112.759 235.084 112.759 234.522 C 112.759 234.459 113.155 234.001 113.634 233.501 C 114.113 233.022 114.447 232.563 114.384 232.501 C 114.322 232.417 113.842 232.667 113.322 233.042 C 112.488 233.626 111.926 233.709 111.926 233.251 C 111.926 233.147 112.655 232.438 113.551 231.667 C 115.759 229.73 115.717 229.334 113.467 231.105 C 112.447 231.897 111.53 232.522 111.405 232.48 C 111.28 232.417 111.072 232.209 110.947 232.001 C 110.717 231.647 110.78 231.542 111.28 231.209 C 112.051 230.73 114.676 228.209 114.551 228.084 C 114.467 228.001 113.717 228.647 111.259 230.855 L 110.509 231.542 L 108.967 230.542 C 108.134 230.001 106.176 228.917 104.634 228.147 C 102.134 226.876 100.634 225.938 98.759 224.438 C 98.03 223.855 97.801 224.084 98.238 224.98 C 98.634 225.834 98.509 226.021 97.842 225.584 C 97.53 225.396 97.342 225.355 97.342 225.501 C 97.342 225.855 100.467 228.084 102.822 229.397 C 103.988 230.063 105.384 230.855 105.905 231.188 C 106.988 231.855 109.426 234.605 111.717 237.709 C 112.551 238.855 113.759 240.48 114.384 241.313 C 115.467 242.751 115.509 242.855 115.259 243.438 C 114.967 244.126 112.447 246.563 112.009 246.563 C 111.655 246.563 109.967 245.188 108.655 243.834 C 107.384 242.501 103.822 238.251 103.655 237.855 C 103.592 237.688 103.947 237.167 104.447 236.647 C 105.572 235.501 105.363 235.438 104.134 236.563 C 103.301 237.334 103.197 237.376 102.884 237.084 C 102.447 236.626 102.467 236.417 102.947 236.251 C 103.342 236.126 106.926 232.772 106.926 232.522 C 106.926 232.147 106.363 232.584 104.572 234.376 C 103.467 235.459 102.447 236.355 102.28 236.355 C 102.113 236.355 101.717 236.23 101.384 236.063 C 101.051 235.897 99.676 235.272 98.301 234.688 C 96.947 234.105 94.905 233.063 93.738 232.376 C 92.592 231.688 91.613 231.188 91.551 231.23 C 91.509 231.292 91.551 231.73 91.676 232.23 C 91.801 232.709 91.863 233.147 91.821 233.188 C 91.801 233.23 91.28 232.917 90.696 232.48 C 90.092 232.063 89.551 231.772 89.488 231.855 C 89.196 232.147 90.676 233.313 92.321 234.084 C 93.301 234.542 95.155 235.751 96.447 236.73 C 97.759 237.73 100.009 239.397 101.447 240.459 C 103.905 242.251 104.405 242.688 104.426 243.063 C 104.426 243.167 104.092 243.605 103.676 244.063 C 103.259 244.522 102.967 244.959 103.03 245.022 C 103.092 245.105 103.592 244.855 104.155 244.501 C 104.697 244.147 105.238 243.876 105.342 243.917 C 105.738 244.042 105.738 245.313 105.342 245.751 C 104.905 246.251 104.301 246.251 102.447 245.751 C 100.551 245.272 99.926 244.938 98.509 243.626 C 97.426 242.647 97.28 242.563 96.801 242.792 C 95.655 243.313 94.759 242.959 91.196 240.542 C 90.051 239.751 88.821 238.98 88.446 238.792 C 87.821 238.459 87.78 238.459 87.655 238.855 C 87.571 239.084 87.655 239.459 87.842 239.73 C 88.03 239.98 88.176 240.272 88.176 240.334 C 88.176 240.626 85.405 238.938 84.613 238.167 C 84.155 237.751 83.759 237.397 83.717 237.397 C 83.655 237.397 83.717 237.667 83.821 238.001 C 84.176 239.022 85.342 240.188 86.696 240.813 C 87.384 241.147 87.967 241.542 87.967 241.688 C 87.967 242.23 86.592 243.751 85.842 244.022 C 84.53 244.522 83.696 244.23 82.134 242.647 C 80.634 241.147 79.842 239.855 79.842 238.917 C 79.842 238.251 80.384 237.292 81.551 235.876 C 82.384 234.897 82.488 234.272 81.821 234.272 C 81.196 234.272 81.53 233.647 82.863 232.209 C 83.613 231.438 84.217 230.667 84.217 230.542 C 84.217 230.355 83.905 230.313 83.071 230.417 C 82.363 230.522 81.926 230.501 81.926 230.376 C 81.926 230.147 84.467 228.167 85.738 227.417 C 86.676 226.855 86.696 226.647 85.863 226.48 C 85.363 226.376 85.238 226.272 85.301 225.917 C 85.384 225.271 86.509 224.751 88.926 224.251 C 90.051 224.021 91.134 223.771 91.301 223.73 C 92.051 223.48 90.863 223.271 88.342 223.188 L 85.717 223.126 L 83.967 224.313 C 82.196 225.542 79.321 228.001 79.509 228.167 C 79.551 228.23 79.821 228.126 80.092 227.938 C 80.634 227.584 82.551 227.105 82.717 227.292 C 82.78 227.355 82.051 228.23 81.071 229.23 C 78.967 231.376 77.905 232.605 78.03 232.751 C 78.092 232.792 78.426 232.688 78.78 232.522 C 80.071 231.855 80.155 232.147 79.113 233.834 C 78.696 234.501 78.134 235.688 77.863 236.48 C 77.28 238.209 76.134 243.292 75.946 244.959 C 75.863 245.688 75.738 246.126 75.592 246.084 C 74.78 245.813 74.384 240.98 74.926 237.834 C 75.446 234.917 76.884 229.709 77.426 228.751 C 78.613 226.73 82.259 224.188 86.342 222.521 C 87.571 222.021 89.238 221.126 90.196 220.438 C 91.155 219.771 92.28 219.146 92.696 219.042 C 93.134 218.917 94.113 218.396 94.863 217.896 C 95.842 217.23 96.592 216.876 97.53 216.709 C 98.28 216.563 98.801 216.355 98.801 216.209 C 98.801 216.063 98.717 215.938 98.634 215.938 C 98.53 215.938 98.238 215.73 97.988 215.48 L 97.488 215.042 L 98.072 214.73 C 99.113 214.188 102.155 213.646 103.384 213.771 C 104.009 213.834 105.092 213.917 105.78 213.938 Z  M 162.405 235.542 C 163.239 236.23 163.322 236.459 162.905 236.959 C 162.739 237.147 162.405 237.834 162.134 238.501 C 161.864 239.188 161.509 239.772 161.343 239.855 C 160.926 240.001 159.426 238.334 159.426 237.73 C 159.426 237.084 160.843 234.897 161.259 234.897 C 161.468 234.897 161.968 235.188 162.405 235.542 Z  M 127.509 237.73 C 127.843 238.126 128.28 238.98 128.509 239.605 L 128.884 240.73 L 127.968 241.667 C 127.468 242.188 126.926 242.605 126.759 242.605 C 126.488 242.605 125.384 240.438 125.03 239.209 C 124.884 238.709 124.968 238.501 125.613 237.792 C 126.009 237.355 126.468 236.98 126.613 236.98 C 126.78 236.98 127.176 237.313 127.509 237.73 Z  M 158.447 240.022 C 158.572 240.667 158.551 240.688 157.614 240.813 C 157.093 240.876 156.364 240.938 155.989 240.938 L 155.301 240.938 L 155.343 242.022 C 155.364 242.897 155.301 243.126 155.009 243.188 C 154.697 243.251 154.634 243.105 154.634 242.105 L 154.634 240.938 L 151.822 240.938 L 149.009 240.938 L 149.009 241.98 L 149.009 243.022 L 147.447 243.022 L 145.884 243.022 L 145.884 244.376 L 145.884 245.73 L 148.072 245.73 C 149.843 245.73 150.301 245.792 150.384 246.042 C 150.614 246.626 150.884 246.355 150.884 245.563 C 150.884 244.251 150.634 243.23 150.343 243.23 C 150.176 243.23 150.051 243.167 150.051 243.063 C 150.051 242.834 153.468 242.98 153.551 243.23 C 153.593 243.355 153.176 243.438 152.468 243.438 L 151.301 243.438 L 151.301 244.897 C 151.301 246.209 151.343 246.355 151.718 246.355 C 152.051 246.355 152.134 246.209 152.134 245.605 C 152.134 244.917 152.176 244.876 152.718 244.98 C 153.03 245.042 154.114 245.147 155.114 245.23 C 156.301 245.313 156.989 245.459 157.051 245.626 C 157.114 245.772 157.343 245.834 157.572 245.792 C 157.926 245.688 157.989 245.522 157.926 244.522 C 157.864 243.48 157.801 243.334 157.343 243.209 C 156.28 242.938 158.009 242.751 159.489 243.001 C 159.884 243.063 159.343 243.459 158.947 243.397 C 158.509 243.334 158.489 243.438 158.426 244.772 C 158.384 245.563 158.447 246.292 158.551 246.397 C 158.759 246.605 161.093 246.376 161.093 246.126 C 161.093 246.042 160.801 245.938 160.426 245.897 C 159.343 245.792 159.447 245.313 160.551 245.313 C 161.468 245.313 161.509 245.334 161.509 245.938 L 161.509 246.563 L 163.26 246.563 C 164.239 246.563 165.093 246.647 165.155 246.772 C 165.239 246.897 164.593 246.98 163.364 246.98 C 161.489 246.98 161.468 246.98 161.593 247.438 C 161.655 247.709 161.718 248.272 161.718 248.688 L 161.718 249.48 L 170.989 249.48 L 180.26 249.48 L 180.26 248.834 C 180.26 248.001 180.76 248.126 180.843 249.001 L 180.905 249.647 L 178.864 249.772 C 172.864 250.147 172.968 250.126 173.739 250.98 C 173.926 251.188 174.135 251.709 174.197 252.147 L 174.322 252.918 L 177.76 253.043 C 182.26 253.188 182.343 253.168 182.343 252.209 C 182.343 251.251 182.01 250.084 181.676 249.855 C 181.53 249.772 183.072 249.688 185.114 249.688 C 189.364 249.688 190.281 250.063 186.26 250.147 L 183.697 250.209 L 183.551 251.334 C 183.468 252.105 183.51 252.605 183.697 252.897 C 183.843 253.147 184.03 253.834 184.093 254.438 C 184.176 255.043 184.322 255.772 184.426 256.043 L 184.635 256.563 L 190.51 256.543 C 193.76 256.522 196.635 256.459 196.906 256.376 C 197.864 256.105 197.906 255.73 197.281 252.751 C 196.947 251.251 196.489 248.792 196.239 247.313 L 195.781 244.647 L 196.281 244.251 C 197.322 243.417 197.364 243.48 199.197 249.105 C 201.822 257.084 201.614 256.313 201.218 257.063 C 200.822 257.813 199.76 258.459 198.197 258.938 C 197.176 259.23 193.135 259.272 155.759 259.272 C 133.03 259.272 114.405 259.209 114.363 259.105 C 114.322 259.022 114.342 258.48 114.405 257.918 L 114.53 256.876 L 141.468 256.813 L 168.385 256.772 L 168.385 255.772 C 168.385 255.23 168.301 254.688 168.218 254.563 C 168.114 254.397 160.426 254.334 141.78 254.334 C 127.343 254.334 115.405 254.251 115.28 254.188 C 115.176 254.105 115.113 253.918 115.176 253.751 C 115.28 253.522 116.072 253.459 119.697 253.501 L 124.113 253.543 L 124.176 252.334 C 124.238 251.313 124.301 251.147 124.634 251.147 C 125.072 251.147 125.197 251.501 125.301 252.813 L 125.363 253.543 L 128.426 253.543 C 130.468 253.543 131.572 253.459 131.738 253.293 C 131.905 253.126 131.926 252.626 131.843 251.709 L 131.697 250.355 L 129.093 250.209 C 126.509 250.063 125.488 249.688 127.655 249.688 L 128.801 249.688 L 128.801 248.313 L 128.801 246.917 L 127.238 247.042 L 125.676 247.188 L 125.676 246.563 C 125.676 245.834 126.072 245.751 126.613 246.376 C 126.947 246.709 127.155 246.772 127.863 246.647 C 128.322 246.584 128.801 246.459 128.905 246.376 C 129.03 246.292 129.863 246.209 130.78 246.167 C 131.697 246.147 132.509 246.063 132.593 246.022 C 132.697 245.959 132.759 245.313 132.759 244.563 L 132.759 243.23 L 130.947 243.23 C 128.78 243.23 128.947 242.917 131.238 242.688 L 132.759 242.563 L 132.759 241.647 L 132.759 240.73 L 131.509 240.73 L 130.259 240.73 L 130.259 240.001 C 130.259 239.605 130.28 239.251 130.322 239.23 C 130.343 239.209 136.551 239.147 144.114 239.084 C 153.155 239.001 157.947 239.022 158.093 239.167 C 158.218 239.272 158.384 239.667 158.447 240.022 Z  M 164.176 239.042 C 164.405 239.188 165.01 241.272 165.051 242.022 C 165.072 242.542 162.739 243.063 162.447 242.605 C 162.218 242.23 163.364 238.855 163.739 238.855 C 163.822 238.855 164.03 238.938 164.176 239.042 Z  M 124.53 242.417 C 124.613 242.647 124.613 243.063 124.551 243.355 C 124.384 243.98 123.03 245.522 122.634 245.522 C 121.968 245.522 122.572 243.563 123.53 242.542 C 124.197 241.876 124.363 241.834 124.53 242.417 Z  M 92.155 244.542 C 92.217 245.417 92.113 246.897 91.696 250.793 C 91.217 255.626 91.196 256.272 91.634 256.438 C 91.821 256.501 96.155 256.563 101.301 256.563 L 110.655 256.563 L 110.78 255.563 C 110.988 254.147 111.197 253.334 111.363 253.376 C 111.447 253.418 111.884 253.438 112.342 253.438 L 113.197 253.438 L 112.884 254.043 C 112.53 254.688 111.78 257.563 111.676 258.543 L 111.613 259.168 L 101.509 259.168 C 93.801 259.168 91.196 259.105 90.509 258.897 C 89.342 258.543 87.967 257.313 87.967 256.626 C 87.967 255.543 89.676 246.563 90.176 245.001 C 90.78 243.188 90.801 243.147 91.53 243.647 C 91.863 243.897 92.155 244.292 92.155 244.542 Z  M 117.759 246.084 C 117.738 246.459 116.801 247.876 116.613 247.792 C 116.363 247.688 116.447 246.876 116.738 246.313 C 116.926 245.959 117.759 245.772 117.759 246.084 Z  M 177.093 246.876 C 177.635 247.98 177.697 248.855 177.218 248.855 C 176.822 248.855 176.301 247.647 176.301 246.667 C 176.301 245.688 176.51 245.751 177.093 246.876 Z  M 193.489 246.813 C 193.531 246.959 193.614 247.772 193.676 248.584 L 193.76 250.105 L 192.426 250.105 C 191.239 250.105 191.093 250.063 191.093 249.688 C 191.093 249.334 191.239 249.272 192.031 249.272 L 192.968 249.272 L 192.968 247.917 C 192.968 247.126 193.051 246.563 193.176 246.563 C 193.301 246.563 193.447 246.688 193.489 246.813 Z  M 99.009 247.084 C 99.009 247.334 98.634 247.397 96.926 247.397 C 95.217 247.397 94.842 247.334 94.842 247.084 C 94.842 246.834 95.217 246.772 96.926 246.772 C 98.634 246.772 99.009 246.834 99.009 247.084 Z  M 191.989 246.917 C 191.718 246.959 191.26 246.959 190.947 246.917 C 190.614 246.876 190.843 246.834 191.406 246.834 C 191.989 246.834 192.239 246.876 191.989 246.917 Z  M 186.926 247.188 C 186.156 247.438 184.176 247.438 184.322 247.188 C 184.385 247.063 185.135 246.98 185.947 247.001 C 187.01 247.022 187.301 247.063 186.926 247.188 Z  M 105.863 247.584 C 106.301 247.855 105.967 248.438 105.384 248.438 C 104.78 248.438 104.53 247.897 105.009 247.626 C 105.447 247.355 105.509 247.355 105.863 247.584 Z  M 192.51 247.855 C 192.447 248.022 191.968 248.147 191.343 248.188 C 190.468 248.23 190.26 248.188 190.26 247.938 C 190.26 247.667 190.51 247.605 191.426 247.605 C 192.26 247.605 192.572 247.688 192.51 247.855 Z  M 124.176 248.584 C 123.676 249.688 123.072 250.313 122.551 250.313 C 122.218 250.313 121.822 250.376 121.634 250.438 C 121.363 250.543 121.301 250.397 121.301 249.501 L 121.301 248.438 L 122.78 248.438 C 123.593 248.438 124.218 248.501 124.176 248.584 Z  M 109.426 249.043 C 109.426 249.147 109.197 249.272 108.905 249.313 C 108.551 249.397 108.384 249.334 108.384 249.147 C 108.384 248.98 108.613 248.855 108.905 248.855 C 109.197 248.855 109.426 248.938 109.426 249.043 Z  M 114.322 249.48 C 114.447 249.688 117.905 249.584 118.655 249.355 C 118.947 249.251 119.03 249.334 118.968 249.626 C 118.905 249.959 118.634 250.001 116.134 250.063 C 114.634 250.084 113.384 250.043 113.384 249.938 C 113.384 249.73 113.822 249.272 114.03 249.272 C 114.113 249.272 114.259 249.376 114.322 249.48 Z  M 194.656 249.959 C 194.385 250.23 194.114 250.022 194.322 249.709 C 194.385 249.584 194.551 249.543 194.676 249.605 C 194.801 249.688 194.801 249.813 194.656 249.959 Z  M 99.009 250.418 C 99.009 250.688 98.572 250.73 96.301 250.73 C 94.03 250.73 93.592 250.688 93.592 250.418 C 93.592 250.147 94.03 250.105 96.301 250.105 C 98.572 250.105 99.009 250.147 99.009 250.418 Z  M 105.238 250.438 C 105.28 250.48 104.634 250.501 103.78 250.48 C 102.405 250.459 102.342 250.438 103.176 250.313 C 104.03 250.188 105.009 250.251 105.238 250.438 Z  M 181.655 251.293 C 181.51 251.438 178.76 251.376 178.614 251.23 C 178.572 251.188 179.26 251.147 180.155 251.147 C 181.051 251.147 181.718 251.209 181.655 251.293 Z  M 107.551 251.772 C 107.738 251.897 107.759 251.98 107.613 251.98 C 107.238 251.98 107.051 252.834 107.363 253.043 C 107.592 253.188 107.592 253.23 107.322 253.23 C 107.113 253.23 106.78 252.855 106.53 252.397 L 106.092 251.563 L 106.676 251.563 C 106.988 251.563 107.384 251.668 107.551 251.772 Z  M 110.634 251.918 C 110.572 252.23 110.363 252.293 109.572 252.251 C 107.53 252.188 107.426 251.563 109.447 251.563 C 110.53 251.563 110.697 251.605 110.634 251.918 Z  M 189.51 253.355 C 189.843 254.209 189.697 254.293 188.031 254.23 C 186.426 254.168 186.406 254.168 186.343 253.584 L 186.281 253.022 L 187.822 253.022 C 189.051 253.022 189.406 253.084 189.51 253.355 Z  M 105.134 253.563 C 105.467 254.438 105.363 254.501 103.134 254.438 L 100.988 254.376 L 100.926 253.793 L 100.863 253.23 L 102.926 253.23 C 104.634 253.23 105.03 253.293 105.134 253.563 Z  M 195.489 253.438 C 195.697 253.563 195.885 253.793 195.885 253.959 C 195.885 254.209 195.51 254.272 193.926 254.272 C 192.176 254.272 191.968 254.23 191.864 253.876 C 191.801 253.647 191.822 253.418 191.885 253.355 C 192.093 253.147 195.072 253.23 195.489 253.438 Z  M 98.884 253.793 C 98.967 253.98 98.947 254.188 98.863 254.251 C 98.78 254.313 97.447 254.355 95.947 254.313 C 93.738 254.272 93.176 254.188 93.176 253.959 C 93.176 253.668 93.946 253.563 97.259 253.48 C 98.488 253.438 98.78 253.501 98.884 253.793 Z " fill="rgb(0,0,0)"/><path d=" M 177.551 141.333 C 177.551 141.458 177.739 141.688 177.989 141.854 C 178.697 142.333 180.051 144.25 180.739 145.729 C 181.28 146.854 181.405 147.417 181.51 149.167 L 181.635 151.25 L 181.905 150 C 182.322 148.125 182.322 144.938 181.885 144.146 C 181.426 143.292 180.322 142.229 179.426 141.792 C 178.468 141.313 177.551 141.083 177.551 141.333 Z " fill="rgb(0,0,0)"/><path d=" M 156.718 155.479 C 156.718 155.583 157.134 155.958 157.634 156.333 C 158.155 156.688 159.155 157.646 159.884 158.459 C 161.259 160 161.614 160.084 160.905 158.667 C 160.072 157.042 158.801 155.917 157.197 155.438 C 156.926 155.354 156.718 155.375 156.718 155.479 Z " fill="rgb(0,0,0)"/><path d=" M 172.843 159.5 C 172.28 160.084 171.239 160.938 170.51 161.417 C 169.03 162.396 169.093 162.688 170.614 161.896 C 171.801 161.271 172.697 160.5 173.489 159.417 C 174.343 158.25 174.03 158.292 172.843 159.5 Z " fill="rgb(0,0,0)"/><path d=" M 116.384 141.125 C 115.217 141.417 113.801 142.208 113.301 142.896 C 112.426 144.042 112.072 145.438 111.988 148.021 C 111.926 149.688 112.009 150.729 112.217 151.458 L 112.509 152.5 L 112.405 150.583 C 112.322 149.396 112.384 148.313 112.53 147.688 C 112.926 146.146 114.113 144.354 115.947 142.563 C 117.593 140.958 117.634 140.833 116.384 141.125 Z " fill="rgb(0,0,0)"/><path d=" M 135.572 155.854 C 134.259 156.542 133.572 157.229 132.947 158.584 C 132.593 159.334 132.363 159.979 132.405 160.021 C 132.447 160.084 132.863 159.667 133.301 159.125 C 133.738 158.563 134.613 157.583 135.238 156.917 C 135.863 156.271 136.322 155.688 136.28 155.625 C 136.218 155.583 135.905 155.688 135.572 155.854 Z " fill="rgb(0,0,0)"/><path d=" M 138.113 166.979 C 136.759 168.584 136.947 170.563 138.572 172.188 C 139.363 172.979 139.801 173.229 141.155 173.604 C 142.051 173.875 142.947 174.25 143.155 174.459 C 143.405 174.709 143.614 175.417 143.78 176.479 C 144.009 178.021 144.259 178.521 144.739 178.354 C 144.968 178.292 145.03 170.646 144.801 170.417 C 144.739 170.354 144.134 170.146 143.447 169.979 C 141.759 169.542 140.78 168.834 140.03 167.5 C 139.28 166.167 138.884 166.063 138.113 166.979 Z " fill="rgb(0,0,0)"/><path d=" M 151.801 167.354 C 150.759 168.646 149.551 169.584 148.364 170 C 147.114 170.438 146.926 170.771 146.926 172.479 C 146.926 173.959 147.301 177.625 147.468 177.792 C 147.718 178.042 148.197 177.146 148.405 176.063 C 148.78 174.021 148.801 173.979 150.509 173.479 C 152.426 172.896 153.218 172.417 153.989 171.354 C 154.718 170.334 154.947 169.209 154.634 168.063 C 154.426 167.209 153.551 166.354 152.926 166.354 C 152.759 166.354 152.259 166.813 151.801 167.354 Z " fill="rgb(0,0,0)"/><path d=" M 125.905 178.625 C 125.613 178.709 125.363 178.875 125.301 179.021 C 125.238 179.209 125.447 179.25 126.134 179.146 C 127.197 178.979 127.322 178.896 126.926 178.646 C 126.572 178.417 126.613 178.417 125.905 178.625 Z " fill="rgb(0,0,0)"/><path d=" M 165.343 178.604 C 165.093 178.646 164.718 178.854 164.51 179.084 C 164.114 179.521 164.239 179.563 165.176 179.292 C 165.614 179.167 166.03 179.209 166.468 179.396 C 167.218 179.709 167.51 179.479 166.968 179.021 C 166.551 178.646 165.968 178.5 165.343 178.604 Z " fill="rgb(0,0,0)"/><path d=" M 124.697 181 C 124.155 181.23 124.03 181.896 124.551 181.688 C 124.738 181.625 125.155 181.563 125.509 181.563 C 125.884 181.563 126.093 181.459 126.051 181.313 C 125.926 180.938 125.197 180.771 124.697 181 Z " fill="rgb(0,0,0)"/><path d=" M 165.676 181.188 L 165.155 181.417 L 165.676 181.5 C 165.968 181.563 166.635 181.73 167.197 181.875 C 168.239 182.188 168.489 181.98 167.718 181.48 C 167.01 181.021 166.26 180.917 165.676 181.188 Z " fill="rgb(0,0,0)"/><path d=" M 145.051 190.646 C 143.072 190.813 139.197 191.417 136.405 192 C 130.155 193.334 129.218 193.48 127.03 193.375 C 125.343 193.292 124.718 193.188 123.822 192.75 C 122.593 192.167 122.072 192.25 121.822 193.042 C 121.593 193.709 121.863 194.417 122.697 195.334 C 124.822 197.688 128.593 198.125 136.093 196.938 C 138.843 196.5 139.759 196.459 146.197 196.48 C 150.405 196.48 153.905 196.584 154.843 196.73 C 155.697 196.855 157.384 197.125 158.593 197.313 C 159.801 197.48 161.864 197.646 163.176 197.667 C 165.489 197.709 165.614 197.688 167.03 197.021 C 168.801 196.188 169.155 195.875 169.655 194.792 C 170.114 193.792 170.155 193.23 169.78 192.73 C 169.51 192.355 169.447 192.355 168.468 192.688 C 167.905 192.855 166.718 193.125 165.822 193.23 C 164.01 193.48 162.78 193.334 157.051 192.063 C 152.155 190.98 147.614 190.459 145.051 190.646 Z  M 123.03 193.313 C 124.822 194.98 128.655 195.23 134.322 194.105 C 139.051 193.167 140.093 193.042 144.322 192.896 C 149.614 192.709 153.634 193.042 158.593 194.063 C 161.489 194.646 163.176 194.896 164.447 194.896 C 166.572 194.896 168.28 194.417 168.739 193.709 C 169.135 193.105 169.426 193.105 169.426 193.709 C 169.426 194.396 168.905 195.021 167.801 195.667 C 166.864 196.23 166.718 196.25 164.01 196.23 C 162.051 196.23 160.468 196.084 158.801 195.771 C 151.468 194.396 143.218 194.313 135.884 195.521 C 129.78 196.521 126.488 196.563 124.551 195.646 C 122.884 194.834 121.988 193.855 122.259 193.146 C 122.426 192.73 122.384 192.73 123.03 193.313 Z " fill="rgb(0,0,0)"/><path d=" M 165.593 201.167 C 164.364 203.063 163.447 203.626 163.635 202.396 C 163.76 201.5 163.489 201.625 162.718 202.792 C 161.864 204.063 159.405 205.855 159.426 205.146 C 159.447 205.063 159.572 204.771 159.739 204.48 C 159.905 204.188 160.03 203.771 160.03 203.542 C 160.03 203.167 159.989 203.167 159.676 203.646 C 158.739 205.042 157.197 206.396 155.801 207.084 C 154.093 207.917 150.843 209.105 150.697 208.938 C 150.634 208.876 150.697 208.646 150.843 208.438 C 150.989 208.209 151.093 207.959 151.093 207.896 C 151.093 207.688 150.114 208.001 148.947 208.542 C 148.364 208.834 147.843 209.063 147.801 209.063 C 147.759 209.063 147.78 208.771 147.864 208.438 C 147.947 208.084 147.905 207.813 147.801 207.813 C 147.697 207.813 147.259 208.084 146.822 208.438 C 146.384 208.771 145.989 209.063 145.926 209.063 C 145.843 209.063 145.509 208.792 145.155 208.459 C 144.822 208.126 144.28 207.771 143.947 207.709 C 143.405 207.563 143.384 207.584 143.593 208.126 C 144.093 209.459 143.259 209.167 140.947 207.209 C 140.114 206.501 139.426 205.98 139.426 206.021 C 139.426 206.084 139.655 206.563 139.926 207.126 C 140.697 208.626 140.197 208.501 138.613 206.792 C 137.843 205.98 137.155 205.313 137.093 205.313 C 137.03 205.313 137.03 205.792 137.093 206.376 C 137.197 207.417 137.176 207.438 136.697 207.292 C 135.738 207.001 134.176 205.563 133.468 204.355 C 133.072 203.688 132.926 204.167 133.259 205.001 C 133.676 205.98 133.28 205.896 132.613 204.876 C 131.197 202.688 130.259 201.834 131.384 203.73 C 131.676 204.23 131.926 204.709 131.926 204.771 C 131.926 204.938 129.093 203.521 128.343 202.98 C 126.968 202.021 128.384 204.126 130.072 205.563 C 132.176 207.355 135.655 209.209 138.572 210.105 C 140.864 210.834 145.301 211.417 147.447 211.292 C 150.843 211.084 155.989 209.501 159.593 207.542 C 162.447 205.98 164.322 204.355 165.489 202.375 C 166.468 200.73 166.572 199.667 165.593 201.167 Z " fill="rgb(0,0,0)"/><path d=" M 173.176 226.647 C 173.176 226.834 173.28 226.98 173.385 226.98 C 173.51 226.98 173.593 226.897 173.593 226.792 C 173.593 226.667 173.51 226.522 173.385 226.459 C 173.28 226.397 173.176 226.48 173.176 226.647 Z " fill="rgb(0,0,0)"/><path d=" M 171.364 229.626 C 170.885 229.813 171.072 230.272 171.843 230.709 C 172.614 231.167 173.176 231.272 173.176 230.959 C 173.176 230.876 172.864 230.709 172.51 230.584 C 171.989 230.438 171.822 230.272 171.843 229.938 C 171.864 229.459 171.801 229.438 171.364 229.626 Z " fill="rgb(0,0,0)"/><path d=" M 177.864 232.376 C 177.739 232.605 178.551 233.126 178.739 232.938 C 178.801 232.876 178.801 232.688 178.739 232.501 C 178.593 232.147 178.051 232.084 177.864 232.376 Z " fill="rgb(0,0,0)"/><path d=" M 179.572 242.959 C 179.447 243.063 180.926 244.063 181.218 244.063 C 181.53 244.063 181.176 243.563 180.635 243.23 C 179.885 242.772 179.78 242.751 179.572 242.959 Z " fill="rgb(0,0,0)"/><path d=" M 118.488 220.751 C 118.405 220.98 118.405 221.23 118.488 221.313 C 118.634 221.459 119.009 220.959 119.009 220.563 C 119.009 220.146 118.634 220.271 118.488 220.751 Z " fill="rgb(0,0,0)"/><path d=" M 119.426 222.376 C 119.426 222.563 118.009 223.751 116.676 224.709 C 116.405 224.917 116.259 225.126 116.342 225.209 C 116.613 225.48 119.843 222.855 119.843 222.376 C 119.843 222.271 119.759 222.188 119.634 222.188 C 119.53 222.188 119.426 222.271 119.426 222.376 Z " fill="rgb(0,0,0)"/><path d=" M 119.134 226.876 C 118.926 227.042 118.634 227.209 118.509 227.251 C 118.384 227.292 118.343 227.417 118.426 227.501 C 118.655 227.73 119.843 227.188 119.843 226.855 C 119.843 226.48 119.634 226.501 119.134 226.876 Z " fill="rgb(0,0,0)"/><path d=" M 105.53 237.063 C 104.217 238.147 104.009 238.438 104.488 238.438 C 105.051 238.438 107.197 236.313 106.884 236.063 C 106.842 236.022 106.238 236.48 105.53 237.063 Z " fill="rgb(0,0,0)"/><path d=" M 102.301 242.959 C 101.655 243.709 101.238 244.876 101.717 244.584 C 101.988 244.417 102.822 242.813 102.697 242.688 C 102.655 242.647 102.467 242.772 102.301 242.959 Z " fill="rgb(0,0,0)"/><path d=" M 133.593 241.667 L 133.593 242.605 L 135.947 242.605 C 137.259 242.605 138.363 242.563 138.405 242.522 C 138.468 242.459 138.468 242.042 138.426 241.584 L 138.343 240.73 L 135.968 240.73 L 133.593 240.73 L 133.593 241.667 Z " fill="rgb(0,0,0)"/><path d=" M 140.009 240.876 C 139.739 240.938 139.634 241.188 139.634 241.792 L 139.634 242.605 L 141.905 242.605 C 143.155 242.605 144.322 242.667 144.509 242.73 C 144.78 242.834 144.843 242.688 144.843 241.792 L 144.843 240.73 L 142.614 240.751 C 141.364 240.772 140.197 240.813 140.009 240.876 Z " fill="rgb(0,0,0)"/><path d=" M 139.384 243.272 C 139.509 243.417 139.655 244.209 139.739 245.022 L 139.884 246.501 L 139.218 246.647 C 138.843 246.709 137.988 246.772 137.301 246.772 L 136.072 246.772 L 136.176 248.167 L 136.259 249.584 L 138.947 249.584 L 141.614 249.584 L 141.676 248.813 C 141.78 247.501 141.468 246.688 140.78 246.563 L 140.176 246.459 L 140.759 246.188 C 141.072 246.063 142.114 245.938 143.072 245.938 L 144.843 245.938 L 144.843 244.48 L 144.843 243.022 L 142.009 243.022 C 139.759 243.022 139.218 243.084 139.384 243.272 Z " fill="rgb(0,0,0)"/><path d=" M 133.613 245.042 L 133.655 246.876 L 131.863 246.834 C 129.655 246.772 129.426 246.938 129.426 248.563 L 129.426 249.709 L 132.447 249.668 L 135.488 249.605 L 135.426 248.251 C 135.363 247.042 135.301 246.855 134.843 246.626 C 134.363 246.397 134.363 246.376 134.738 246.209 C 134.968 246.126 135.926 246.063 136.884 246.063 L 138.593 246.105 L 138.593 244.667 L 138.593 243.23 L 136.072 243.23 L 133.572 243.23 L 133.613 245.042 Z " fill="rgb(0,0,0)"/><path d=" M 153.051 246.438 L 153.197 247.001 L 151.301 246.897 C 149.759 246.834 149.343 246.73 149.114 246.417 C 148.572 245.688 148.322 246.355 148.489 248.105 L 148.634 249.688 L 151.884 249.688 L 155.114 249.688 L 154.989 248.001 C 154.905 247.063 154.822 246.272 154.801 246.251 C 154.759 246.209 154.322 246.126 153.822 246.042 C 152.905 245.897 152.905 245.897 153.051 246.438 Z " fill="rgb(0,0,0)"/><path d=" M 155.509 247.834 L 155.572 249.522 L 158.343 249.563 L 161.114 249.605 L 161.051 248.23 L 160.989 246.876 L 158.655 246.772 C 157.197 246.709 156.218 246.563 156.051 246.397 C 155.551 245.897 155.447 246.167 155.509 247.834 Z " fill="rgb(0,0,0)"/><path d=" M 147.176 246.542 C 147.03 246.626 145.905 246.709 144.676 246.709 L 142.447 246.73 L 142.384 248.063 L 142.322 249.418 L 144.989 249.543 C 146.447 249.605 147.718 249.584 147.801 249.522 C 147.968 249.355 147.759 246.355 147.572 246.355 C 147.509 246.355 147.322 246.438 147.176 246.542 Z " fill="rgb(0,0,0)"/><path d=" M 134.488 250.251 L 132.384 250.334 L 132.488 251.209 C 132.551 251.688 132.655 252.418 132.738 252.813 L 132.884 253.543 L 135.676 253.543 L 138.488 253.543 L 138.488 251.876 L 138.488 250.209 L 137.551 250.188 C 137.03 250.188 135.655 250.209 134.488 250.251 Z " fill="rgb(0,0,0)"/><path d=" M 139.363 250.251 C 139.322 250.355 139.322 251.084 139.384 251.918 L 139.468 253.418 L 140.343 253.543 C 140.801 253.605 141.989 253.647 142.968 253.605 L 144.739 253.543 L 144.801 251.813 L 144.864 250.105 L 142.155 250.105 C 140.676 250.105 139.405 250.168 139.363 250.251 Z " fill="rgb(0,0,0)"/><path d=" M 145.718 251.668 C 145.759 252.772 145.884 253.313 146.093 253.438 C 146.447 253.668 150.301 253.688 151.093 253.459 C 151.593 253.313 151.614 253.251 151.614 251.772 L 151.614 250.209 L 148.614 250.147 L 145.634 250.084 L 145.718 251.668 Z " fill="rgb(0,0,0)"/><path d=" M 152.489 251.501 C 152.53 252.293 152.614 253.043 152.655 253.168 C 152.718 253.376 153.468 253.438 155.468 253.438 C 158.551 253.438 158.28 253.647 158.051 251.376 L 157.905 250.105 L 155.155 250.105 L 152.384 250.105 L 152.489 251.501 Z " fill="rgb(0,0,0)"/><path d=" M 158.905 251.605 C 158.989 252.438 159.134 253.209 159.239 253.334 C 159.364 253.459 160.905 253.543 163.03 253.543 L 166.614 253.543 L 166.614 251.876 L 166.614 250.209 L 162.676 250.147 L 158.759 250.105 L 158.905 251.605 Z " fill="rgb(0,0,0)"/><path d=" M 167.551 251.563 L 167.551 253.022 L 170.155 253.022 L 172.76 253.022 L 172.76 251.563 L 172.76 250.105 L 170.155 250.105 L 167.551 250.105 L 167.551 251.563 Z " fill="rgb(0,0,0)"/><path d=" M 171.03 253.73 C 170.989 253.855 171.03 254.23 171.135 254.584 C 171.218 254.918 171.301 255.459 171.301 255.751 C 171.301 256.063 171.426 256.334 171.572 256.376 C 171.697 256.418 172.989 256.438 174.405 256.397 L 176.968 256.334 L 176.822 255.355 C 176.551 253.376 176.822 253.543 173.801 253.522 C 172.072 253.522 171.072 253.605 171.03 253.73 Z " fill="rgb(0,0,0)"/></g><circle vector-effect="non-scaling-stroke" cx="146.55028461953668" cy="193.6645958131731" r="124.51328127193618" fill="none"/><path d=" M 120.684 55.901 L 120.448 53.114 L 129.508 52.347 L 135.755 62.102 L 139.988 51.461 L 148.325 50.755 L 148.561 53.543 L 145.773 53.779 L 147.129 69.808 L 149.917 69.572 L 150.153 72.36 L 139.002 73.303 L 138.766 70.516 L 141.554 70.28 L 140.49 57.709 L 135.86 69.358 L 134.118 69.505 L 127.245 58.786 L 128.312 71.4 L 131.1 71.164 L 131.336 73.952 L 122.276 74.718 L 122.04 71.931 L 124.827 71.695 L 123.471 55.665 L 120.684 55.901 Z  M 162.608 52.482 L 162.608 52.482 L 162.608 52.482 Q 164.057 52.319 165.612 52.497 L 165.612 52.497 L 165.612 52.497 Q 167.166 52.676 168.54 53.164 L 168.54 53.164 L 168.54 53.164 Q 169.914 53.652 170.989 54.366 L 170.989 54.366 L 170.989 54.366 Q 172.065 55.079 172.936 55.998 L 172.936 55.998 L 172.936 55.998 Q 173.807 56.916 174.398 57.974 L 174.398 57.974 L 174.398 57.974 Q 174.989 59.032 175.354 60.187 L 175.354 60.187 L 175.354 60.187 Q 175.718 61.343 175.827 62.539 L 175.827 62.539 L 175.827 62.539 Q 175.936 63.735 175.798 64.933 L 175.798 64.933 L 175.798 64.933 Q 175.66 66.132 175.282 67.272 L 175.282 67.272 L 175.282 67.272 Q 174.905 68.413 174.288 69.455 L 174.288 69.455 L 174.288 69.455 Q 173.671 70.497 172.855 71.393 L 172.855 71.393 L 172.855 71.393 Q 172.039 72.289 170.982 72.986 L 170.982 72.986 L 170.982 72.986 Q 169.925 73.683 168.716 74.134 L 168.716 74.134 L 168.716 74.134 Q 167.507 74.584 166.058 74.748 L 166.058 74.748 L 166.058 74.748 Q 164.609 74.911 163.054 74.732 L 163.054 74.732 L 163.054 74.732 Q 161.5 74.553 160.126 74.065 L 160.126 74.065 L 160.126 74.065 Q 158.752 73.577 157.676 72.864 L 157.676 72.864 L 157.676 72.864 Q 156.601 72.151 155.73 71.232 L 155.73 71.232 L 155.73 71.232 Q 154.859 70.314 154.268 69.256 L 154.268 69.256 L 154.268 69.256 Q 153.677 68.197 153.312 67.042 L 153.312 67.042 L 153.312 67.042 Q 152.948 65.887 152.839 64.691 L 152.839 64.691 L 152.839 64.691 Q 152.73 63.495 152.868 62.296 L 152.868 62.296 L 152.868 62.296 Q 153.006 61.098 153.383 59.957 L 153.383 59.957 L 153.383 59.957 Q 153.761 58.817 154.378 57.775 L 154.378 57.775 L 154.378 57.775 Q 154.995 56.733 155.811 55.836 L 155.811 55.836 L 155.811 55.836 Q 156.627 54.94 157.684 54.243 L 157.684 54.243 L 157.684 54.243 Q 158.741 53.546 159.95 53.096 L 159.95 53.096 L 159.95 53.096 Q 161.159 52.645 162.608 52.482 Z  M 167.158 55.927 L 167.158 55.927 L 167.158 55.927 Q 166.343 55.398 165.292 55.277 L 165.292 55.277 L 165.292 55.277 Q 164.241 55.156 163.327 55.486 L 163.327 55.486 L 163.327 55.486 Q 162.414 55.817 161.723 56.503 L 161.723 56.503 L 161.723 56.503 Q 161.033 57.189 160.494 58.197 L 160.494 58.197 L 160.494 58.197 Q 159.956 59.204 159.619 60.415 L 159.619 60.415 L 159.619 60.415 Q 159.281 61.626 159.122 63.015 L 159.122 63.015 L 159.122 63.015 Q 158.922 64.753 159.084 66.289 L 159.084 66.289 L 159.084 66.289 Q 159.246 67.826 159.748 69.045 L 159.748 69.045 L 159.748 69.045 Q 160.25 70.265 161.178 71.036 L 161.178 71.036 L 161.178 71.036 Q 162.106 71.807 163.374 71.953 L 163.374 71.953 L 163.374 71.953 Q 164.642 72.099 165.721 71.558 L 165.721 71.558 L 165.721 71.558 Q 166.799 71.018 167.565 69.944 L 167.565 69.944 L 167.565 69.944 Q 168.331 68.871 168.838 67.411 L 168.838 67.411 L 168.838 67.411 Q 169.344 65.951 169.544 64.214 L 169.544 64.214 L 169.544 64.214 Q 169.704 62.825 169.65 61.569 L 169.65 61.569 L 169.65 61.569 Q 169.597 60.313 169.301 59.21 L 169.301 59.21 L 169.301 59.21 Q 169.006 58.106 168.489 57.281 L 168.489 57.281 L 168.489 57.281 Q 167.972 56.456 167.158 55.927 Z  M 180.873 57.889 L 181.604 55.189 L 189.115 57.222 L 195.038 69.803 L 197.076 62.275 L 194.375 61.544 L 195.106 58.843 L 203.883 61.219 L 203.152 63.919 L 200.452 63.189 L 195.518 81.417 L 193.492 80.869 L 185.67 64.26 L 182.746 75.062 L 185.447 75.793 L 184.716 78.493 L 175.939 76.118 L 176.67 73.417 L 179.37 74.148 L 183.573 58.62 L 180.873 57.889 Z  M 207.529 65.888 L 208.655 63.327 L 218.9 67.831 L 217.774 70.392 L 215.213 69.266 L 208.739 83.993 L 210.339 84.696 L 209.213 87.257 L 199.929 83.176 L 201.055 80.615 L 203.616 81.741 L 210.09 67.014 L 207.529 65.888 Z  M 222.888 72.64 L 220.015 71.377 L 221.141 68.816 L 230.105 72.757 L 228.979 75.318 L 226.634 74.287 L 218.364 77.957 L 220.608 89.211 L 222.825 90.185 L 221.699 92.746 L 211.134 88.102 L 212.26 85.541 L 214.477 86.515 L 212.622 77.2 L 222.888 72.64 Z  M 234.157 78.658 L 235.751 76.36 L 251.267 87.124 L 247.28 92.871 L 244.694 91.077 L 245.492 89.927 L 245.492 89.927 Q 245.736 89.575 245.934 89.16 L 245.934 89.16 L 245.934 89.16 Q 246.132 88.744 246.26 88.29 L 246.26 88.29 L 246.26 88.29 Q 246.389 87.837 246.314 87.439 L 246.314 87.439 L 246.314 87.439 Q 246.239 87.041 245.937 86.831 L 245.937 86.831 L 241.052 83.443 L 236.667 89.764 L 239.253 91.558 L 241.047 88.972 L 243.345 90.567 L 238.162 98.037 L 235.864 96.442 L 237.658 93.856 L 235.072 92.062 L 231.882 96.66 L 237.054 100.248 L 237.054 100.248 Q 237.356 100.457 237.755 100.388 L 237.755 100.388 L 237.755 100.388 Q 238.154 100.319 238.534 100.04 L 238.534 100.04 L 238.534 100.04 Q 238.914 99.761 239.234 99.43 L 239.234 99.43 L 239.234 99.43 Q 239.554 99.099 239.798 98.747 L 239.798 98.747 L 240.596 97.597 L 243.182 99.391 L 239.195 105.138 L 223.392 94.174 L 224.987 91.875 L 227.285 93.47 L 236.455 80.253 L 234.157 78.658 Z  M 264.11 101.804 L 266.003 99.745 L 272.955 106.134 L 271.061 108.194 L 269.259 106.538 L 258.123 108.783 L 253.455 113.861 L 255.515 115.754 L 253.622 117.814 L 245.383 110.241 L 247.276 108.182 L 249.336 110.075 L 254.075 104.919 L 255.356 93.758 L 253.811 92.338 L 255.704 90.279 L 263.943 97.851 L 262.05 99.911 L 260.447 98.438 L 259.617 105.62 L 266.71 104.195 L 264.11 101.804 Z  M 26.754 96.908 L 26.754 96.908 L 26.754 96.908 Q 30.191 93.866 33.876 93.875 L 33.876 93.875 L 33.876 93.875 Q 35.381 93.874 36.413 94.308 L 36.413 94.308 L 36.413 94.308 Q 37.446 94.743 38.46 95.889 L 38.46 95.889 L 38.46 95.889 Q 39.231 96.759 39.16 97.913 L 39.16 97.913 L 39.16 97.913 Q 39.09 99.067 38.219 99.838 L 38.219 99.838 L 38.219 99.838 Q 37.348 100.608 36.194 100.538 L 36.194 100.538 L 36.194 100.538 Q 35.04 100.468 34.27 99.597 L 34.27 99.597 L 34.27 99.597 Q 33.876 99.152 33.702 98.599 L 33.702 98.599 L 33.702 98.599 Q 33.528 98.046 33.582 97.474 L 33.582 97.474 L 33.582 97.474 Q 32.334 97.014 31.207 97.357 L 31.207 97.357 L 31.207 97.357 Q 30.081 97.7 28.87 98.772 L 28.87 98.772 L 28.87 98.772 Q 28.078 99.473 27.684 100.393 L 27.684 100.393 L 27.684 100.393 Q 27.29 101.314 27.306 102.327 L 27.306 102.327 L 27.306 102.327 Q 27.321 103.341 27.663 104.439 L 27.663 104.439 L 27.663 104.439 Q 28.005 105.538 28.663 106.631 L 28.663 106.631 L 28.663 106.631 Q 29.32 107.724 30.242 108.765 L 30.242 108.765 L 30.242 108.765 Q 31.151 109.793 32.201 110.557 L 32.201 110.557 L 32.201 110.557 Q 33.251 111.321 34.339 111.747 L 34.339 111.747 L 34.339 111.747 Q 35.428 112.172 36.478 112.277 L 36.478 112.277 L 36.478 112.277 Q 37.528 112.381 38.509 112.085 L 38.509 112.085 L 38.509 112.085 Q 39.49 111.788 40.256 111.111 L 40.256 111.111 L 40.256 111.111 Q 41.369 110.126 41.801 108.681 L 41.801 108.681 L 41.801 108.681 Q 42.233 107.236 41.912 105.6 L 41.912 105.6 L 41.912 105.6 Q 41.59 103.964 40.536 102.457 L 40.536 102.457 L 43.095 101.126 L 43.095 101.126 Q 43.616 102.032 43.989 102.875 L 43.989 102.875 L 43.989 102.875 Q 44.361 103.718 44.624 104.648 L 44.624 104.648 L 44.624 104.648 Q 44.886 105.577 44.95 106.455 L 44.95 106.455 L 44.95 106.455 Q 45.014 107.332 44.87 108.265 L 44.87 108.265 L 44.87 108.265 Q 44.727 109.197 44.342 110.081 L 44.342 110.081 L 44.342 110.081 Q 43.956 110.965 43.262 111.882 L 43.262 111.882 L 43.262 111.882 Q 42.568 112.8 41.586 113.669 L 41.586 113.669 L 41.586 113.669 Q 40.414 114.706 39.133 115.402 L 39.133 115.402 L 39.133 115.402 Q 37.852 116.098 36.603 116.422 L 36.603 116.422 L 36.603 116.422 Q 35.354 116.745 34.088 116.779 L 34.088 116.779 L 34.088 116.779 Q 32.822 116.813 31.64 116.546 L 31.64 116.546 L 31.64 116.546 Q 30.458 116.279 29.355 115.778 L 29.355 115.778 L 29.355 115.778 Q 28.252 115.277 27.29 114.559 L 27.29 114.559 L 27.29 114.559 Q 26.327 113.84 25.528 112.937 L 25.528 112.937 L 25.528 112.937 Q 24.728 112.033 24.132 110.99 L 24.132 110.99 L 24.132 110.99 Q 23.536 109.948 23.173 108.792 L 23.173 108.792 L 23.173 108.792 Q 22.81 107.636 22.689 106.43 L 22.689 106.43 L 22.689 106.43 Q 22.567 105.225 22.755 103.973 L 22.755 103.973 L 22.755 103.973 Q 22.943 102.721 23.416 101.52 L 23.416 101.52 L 23.416 101.52 Q 23.889 100.319 24.735 99.132 L 24.735 99.132 L 24.735 99.132 Q 25.582 97.945 26.754 96.908 Z  M 44.696 82.992 L 44.696 82.992 L 44.696 82.992 Q 45.705 81.939 47.014 81.081 L 47.014 81.081 L 47.014 81.081 Q 48.323 80.223 49.69 79.719 L 49.69 79.719 L 49.69 79.719 Q 51.058 79.214 52.341 79.074 L 52.341 79.074 L 52.341 79.074 Q 53.624 78.934 54.881 79.082 L 54.881 79.082 L 54.881 79.082 Q 56.138 79.23 57.27 79.664 L 57.27 79.664 L 57.27 79.664 Q 58.401 80.099 59.421 80.753 L 59.421 80.753 L 59.421 80.753 Q 60.44 81.407 61.289 82.256 L 61.289 82.256 L 61.289 82.256 Q 62.139 83.106 62.8 84.115 L 62.8 84.115 L 62.8 84.115 Q 63.461 85.124 63.901 86.241 L 63.901 86.241 L 63.901 86.241 Q 64.341 87.359 64.534 88.555 L 64.534 88.555 L 64.534 88.555 Q 64.727 89.751 64.674 90.962 L 64.674 90.962 L 64.674 90.962 Q 64.621 92.172 64.255 93.384 L 64.255 93.384 L 64.255 93.384 Q 63.889 94.596 63.249 95.716 L 63.249 95.716 L 63.249 95.716 Q 62.608 96.837 61.6 97.89 L 61.6 97.89 L 61.6 97.89 Q 60.591 98.943 59.282 99.8 L 59.282 99.8 L 59.282 99.8 Q 57.974 100.658 56.606 101.163 L 56.606 101.163 L 56.606 101.163 Q 55.238 101.667 53.955 101.808 L 53.955 101.808 L 53.955 101.808 Q 52.672 101.948 51.415 101.8 L 51.415 101.8 L 51.415 101.8 Q 50.158 101.652 49.026 101.217 L 49.026 101.217 L 49.026 101.217 Q 47.895 100.783 46.875 100.129 L 46.875 100.129 L 46.875 100.129 Q 45.856 99.475 45.007 98.625 L 45.007 98.625 L 45.007 98.625 Q 44.157 97.776 43.496 96.767 L 43.496 96.767 L 43.496 96.767 Q 42.835 95.758 42.395 94.64 L 42.395 94.64 L 42.395 94.64 Q 41.955 93.523 41.762 92.327 L 41.762 92.327 L 41.762 92.327 Q 41.569 91.131 41.622 89.92 L 41.622 89.92 L 41.622 89.92 Q 41.675 88.709 42.041 87.497 L 42.041 87.497 L 42.041 87.497 Q 42.407 86.285 43.047 85.165 L 43.047 85.165 L 43.047 85.165 Q 43.688 84.045 44.696 82.992 Z  M 50.397 82.726 L 50.397 82.726 L 50.397 82.726 Q 49.432 82.841 48.547 83.421 L 48.547 83.421 L 48.547 83.421 Q 47.662 84.001 47.172 84.84 L 47.172 84.84 L 47.172 84.84 Q 46.682 85.679 46.591 86.648 L 46.591 86.648 L 46.591 86.648 Q 46.499 87.617 46.731 88.736 L 46.731 88.736 L 46.731 88.736 Q 46.962 89.854 47.478 91 L 47.478 91 L 47.478 91 Q 47.994 92.146 48.761 93.316 L 48.761 93.316 L 48.761 93.316 Q 49.719 94.779 50.827 95.856 L 50.827 95.856 L 50.827 95.856 Q 51.936 96.932 53.102 97.548 L 53.102 97.548 L 53.102 97.548 Q 54.269 98.163 55.475 98.162 L 55.475 98.162 L 55.475 98.162 Q 56.681 98.16 57.749 97.461 L 57.749 97.461 L 57.749 97.461 Q 58.816 96.761 59.299 95.655 L 59.299 95.655 L 59.299 95.655 Q 59.782 94.55 59.683 93.235 L 59.683 93.235 L 59.683 93.235 Q 59.584 91.919 59.039 90.474 L 59.039 90.474 L 59.039 90.474 Q 58.494 89.028 57.535 87.565 L 57.535 87.565 L 57.535 87.565 Q 56.769 86.395 55.923 85.465 L 55.923 85.465 L 55.923 85.465 Q 55.078 84.534 54.145 83.876 L 54.145 83.876 L 54.145 83.876 Q 53.212 83.218 52.287 82.915 L 52.287 82.915 L 52.287 82.915 Q 51.362 82.612 50.397 82.726 Z  M 80.073 87.644 L 80.073 87.644 L 69.966 92.447 L 68.765 89.921 L 71.292 88.72 L 64.387 74.19 L 61.86 75.391 L 60.659 72.864 L 70.767 68.061 L 70.767 68.061 Q 72.465 67.254 74.151 66.913 L 74.151 66.913 L 74.151 66.913 Q 75.838 66.571 77.319 66.685 L 77.319 66.685 L 77.319 66.685 Q 78.801 66.798 80.164 67.273 L 80.164 67.273 L 80.164 67.273 Q 81.527 67.749 82.649 68.551 L 82.649 68.551 L 82.649 68.551 Q 83.771 69.354 84.663 70.416 L 84.663 70.416 L 84.663 70.416 Q 85.555 71.478 86.159 72.749 L 86.159 72.749 L 86.159 72.749 Q 86.763 74.02 87.024 75.383 L 87.024 75.383 L 87.024 75.383 Q 87.284 76.745 87.197 78.122 L 87.197 78.122 L 87.197 78.122 Q 87.111 79.498 86.619 80.855 L 86.619 80.855 L 86.619 80.855 Q 86.126 82.212 85.279 83.433 L 85.279 83.433 L 85.279 83.433 Q 84.431 84.654 83.101 85.746 L 83.101 85.746 L 83.101 85.746 Q 81.771 86.837 80.073 87.644 Z  M 76.345 86.318 L 78.872 85.117 L 78.872 85.117 Q 80.104 84.532 80.815 83.522 L 80.815 83.522 L 80.815 83.522 Q 81.525 82.511 81.68 81.237 L 81.68 81.237 L 81.68 81.237 Q 81.834 79.964 81.529 78.497 L 81.529 78.497 L 81.529 78.497 Q 81.224 77.03 80.474 75.451 L 80.474 75.451 L 80.474 75.451 Q 79.873 74.188 79.166 73.188 L 79.166 73.188 L 79.166 73.188 Q 78.459 72.188 77.623 71.468 L 77.623 71.468 L 77.623 71.468 Q 76.786 70.747 75.892 70.383 L 75.892 70.383 L 75.892 70.383 Q 74.998 70.019 73.992 70.061 L 73.992 70.061 L 73.992 70.061 Q 72.986 70.104 71.968 70.588 L 71.968 70.588 L 69.441 71.789 L 76.345 86.318 Z  M 86.804 64.226 L 86.019 61.54 L 104.146 56.245 L 106.107 62.959 L 103.086 63.842 L 102.694 62.499 L 102.694 62.499 Q 102.574 62.088 102.375 61.672 L 102.375 61.672 L 102.375 61.672 Q 102.176 61.256 101.904 60.871 L 101.904 60.871 L 101.904 60.871 Q 101.632 60.486 101.276 60.294 L 101.276 60.294 L 101.276 60.294 Q 100.919 60.103 100.567 60.206 L 100.567 60.206 L 94.86 61.872 L 97.017 69.257 L 100.038 68.375 L 99.156 65.354 L 101.841 64.569 L 104.391 73.297 L 101.705 74.082 L 100.823 71.06 L 97.802 71.943 L 99.37 77.314 L 105.413 75.549 L 105.413 75.549 Q 105.765 75.446 105.962 75.092 L 105.962 75.092 L 105.962 75.092 Q 106.16 74.739 106.182 74.268 L 106.182 74.268 L 106.182 74.268 Q 106.203 73.797 106.147 73.34 L 106.147 73.34 L 106.147 73.34 Q 106.091 72.882 105.971 72.471 L 105.971 72.471 L 105.579 71.129 L 108.6 70.246 L 110.561 76.96 L 92.098 82.353 L 91.314 79.667 L 94 78.883 L 89.489 63.441 L 86.804 64.226 Z " fill="rgb(0,0,0)"/><circle vector-effect="non-scaling-stroke" cx="146.55028461953665" cy="27.999999999999993" r="10" fill="rgb(0,0,0)"/></g></svg>